<svg width="2240" height="1344" viewBox="0 0 2240 1344" fill="none" xmlns="http://www.w3.org/2000/svg">
<path fill-rule="evenodd" clip-rule="evenodd" d="M1196.15 258.89C1185.38 256.87 1179.61 250.94 1175.51 237.7C1171.52 224.85 1169.75 212.04 1169.73 196C1169.71 180.7 1169.73 180.55 1176.56 158.18C1178.45 151.97 1179.08 148.43 1178.45 147.58C1172.28 139.26 1171.5 137.45 1171.5 131.32C1171.5 126.58 1171.99 124.49 1173.62 122.32C1175.59 119.7 1176.23 119.5 1182.71 119.5C1188.57 119.5 1190.66 120 1195.77 122.64C1200.8 125.24 1202.18 125.58 1203.68 124.6C1204.68 123.94 1209.14 121.73 1213.6 119.68C1225.34 114.27 1238.35 112 1257.57 112C1274.77 112 1276.31 111.38 1272.13 106.17C1267.37 100.23 1266.59 98.5199 1266.2 93.0399C1265.86 88.3499 1266.26 86.3699 1268.44 81.9199C1275.3 67.9599 1287.35 65.9099 1302.12 76.1899L1307.73 80.0999L1325.79 80.3799L1343.85 80.6599L1349.18 75.8099C1355.31 70.2099 1357.21 69.4899 1365.7 69.5199C1372.77 69.5399 1375.47 71.0399 1380.69 77.8399C1386.94 85.9899 1385.52 97.0799 1377.56 102.19C1375.58 103.46 1373.68 105.57 1373.34 106.88C1372.59 109.74 1375.25 118.8 1378.67 125C1381.65 130.41 1384.98 143.7 1384.99 150.2C1385.01 159.65 1383.17 164.7 1376.46 173.59C1372.97 178.22 1369.81 182.5 1369.43 183.12C1368.78 184.16 1367.51 193.14 1365.03 214.07C1363.42 227.71 1363.56 238.96 1365.4 243.22C1367.22 247.44 1367.47 252.26 1366.01 254.98C1364.23 258.31 1356.79 260.36 1348.88 259.69C1340.86 259.02 1338.05 257.56 1334.55 252.23C1331.65 247.82 1329.79 235.48 1330.69 226.73C1331.73 216.62 1327.8 211.98 1321.12 215.44C1317.71 217.2 1317.63 217.43 1315.93 231C1314.9 239.13 1314.95 241.15 1316.27 245.01C1319.48 254.4 1315.98 258.01 1302.91 258.79C1296.73 259.15 1294.46 258.85 1290.63 257.16C1286.61 255.38 1285.58 254.3 1283.58 249.77C1282.29 246.85 1280.27 239.75 1279.09 233.99C1276.24 219.99 1275.49 219.25 1265.8 220.92C1256.07 222.6 1254.17 223.46 1253.41 226.51C1252.4 230.51 1253.49 239.77 1255.2 241.73C1259.07 246.19 1257.92 252.96 1252.85 255.57C1249.57 257.27 1236.71 257.49 1232.22 255.93C1230.52 255.33 1228.42 253.76 1227.54 252.43C1225.04 248.6 1218.59 249.31 1216.97 253.59C1215.26 258.08 1205.33 260.61 1196.15 258.89ZM1218.98 229.75C1217.7 225.24 1216.65 225.02 1215.03 228.93C1214.03 231.34 1214.12 232.88 1215.55 237.68L1217.29 243.5L1218.66 238.5C1219.71 234.72 1219.78 232.59 1218.98 229.75Z" fill="black"/>
</svg>
