<svg width="2240" height="1344" viewBox="0 0 2240 1344" fill="none" xmlns="http://www.w3.org/2000/svg">
<path fill-rule="evenodd" clip-rule="evenodd" d="M885.84 503.82C879.31 502.08 878.38 494.09 883.79 486.22C885.19 484.17 887.71 480.48 889.38 478C891.06 475.52 894.36 470.86 896.71 467.64C901.04 461.72 901.81 459.62 900.02 458.51C899.48 458.18 895.17 457.23 890.44 456.41C878.54 454.33 872.22 451.32 868.5 445.96C864.05 439.55 859.73 435.56 854.63 433.17C847.21 429.68 846.81 425.66 853.7 423.57C854.9 423.2 860.08 418.86 865.19 413.92C877.07 402.45 880.76 400.59 890.33 401.22C899.99 401.85 909.24 406.54 918.74 415.6C920.53 417.3 923.85 419.53 926.12 420.55C930.22 422.4 930.26 422.4 931.99 420.27C932.94 419.09 934.99 415.05 936.53 411.31C945.79 388.8 945.31 389.65 949.45 388.08L953.31 386.61L956.27 390.06C962.63 397.47 964.08 402.48 967.07 427.5C967.73 433 968.67 438.28 969.16 439.24C970.71 442.24 980.85 447.99 990 451.05C994.84 452.67 999.52 454 1000.4 454C1002.92 454 1006 457.73 1005.98 460.75C1005.96 462.26 1004.73 465.75 1003.23 468.5C1000.7 473.14 1000.2 473.52 996.32 473.8C993.26 474.03 991.1 473.46 988.32 471.72C986.22 470.41 982.61 468.86 980.3 468.29C975.58 467.11 975.13 467.31 966.4 474.68C960.96 479.27 956.36 481.29 948.77 482.42C945.37 482.92 942.01 484.57 936.77 488.31C925.6 496.28 924.28 497.02 916.63 499.63C909.81 501.96 894.52 505.11 891.12 504.9C890.23 504.84 887.85 504.35 885.84 503.82Z" fill="black"/>
</svg>
