<svg width="2240" height="1344" viewBox="0 0 2240 1344" fill="none" xmlns="http://www.w3.org/2000/svg">
<path fill-rule="evenodd" clip-rule="evenodd" d="M629.24 711.51C627.38 710.7 625.51 708.9 624.87 707.3C623.42 703.67 621.09 673.94 621.04 658.37C621.01 649.93 620.62 645.93 619.75 645.21C618.25 643.96 604.95 643.66 558.39 643.83C531.32 643.93 523.05 644.25 522.28 645.23C520.38 647.66 520.01 651.66 519.38 676.9C519.03 690.87 518.43 703.47 518.05 704.9C517.67 706.33 515.86 708.51 514.03 709.75C511.18 711.68 509.39 712 501.53 712C493.19 712 492.15 711.78 490.15 709.66C486.94 706.25 486.05 698.51 486.56 678.77C486.96 663.73 486.35 653.85 484.4 643.85C483.75 640.49 479.17 638.31 476.16 639.91C474.63 640.73 474 642.38 473.55 646.75C473.23 649.91 472.53 656.33 472 661C471.48 665.67 470.8 676.66 470.5 685.42C469.86 704.04 469.58 705.6 466.18 709.25C463.77 711.84 463.13 712 454.96 712C447.59 712 445.79 711.66 442.9 709.71L439.5 707.42L438.84 676.46C438.48 659.43 437.64 641.23 436.98 636C436.32 630.77 435.41 622 434.97 616.5C434.11 605.71 433.21 600.57 430.67 592C429.13 586.78 428.03 577.84 425.98 554.01C425.06 543.33 426.67 527.35 429.12 522.77C431.56 518.21 423.01 516.24 416.02 519.75C410.43 522.56 409.37 526.81 410.86 540.37C411.53 546.49 412.32 559.38 412.62 569C413.14 585.51 413.31 586.71 415.65 590.14C420.98 597.99 422.78 614.59 419.08 621.84C416.52 626.87 413.23 628.23 402.41 628.77C393.38 629.22 393.3 629.2 389.76 626.09C385.08 621.98 383.56 615.91 384.55 605.29C385.49 595.19 387.08 590.88 392.03 584.96C397.15 578.85 397.73 574.57 395.54 559C394.66 552.67 393.41 541.63 392.78 534.45C391.76 522.77 391.82 520.85 393.38 516.07C395.83 508.58 397.49 506.43 403.36 503.13C413.09 497.66 425.2 496.66 435.88 500.45C442.02 502.63 445.97 502.39 451.4 499.5C459.31 495.3 472.5 492.28 495 489.54C524.19 485.98 543.43 481.07 561.5 472.54C564.25 471.25 569.65 469.21 573.5 468.01C577.35 466.82 582.28 465.17 584.44 464.35C586.82 463.45 592.91 462.73 599.71 462.53L611.03 462.2L614.95 458.67C620.07 454.04 624.22 452.96 632.71 454.06C646.01 455.77 647 455.08 647 444C647 432.83 650.15 423.71 655.73 418.72C659.09 415.72 661.61 418.88 664.5 429.74C670.87 453.69 677.81 458.58 704.38 457.81C717.36 457.43 718.92 457.18 723.76 454.68C732.2 450.31 736.17 443.56 739.46 428C741.67 417.56 742 417.15 746.52 419.55C748.53 420.62 750.6 422.28 751.11 423.24C752.96 426.64 755.87 437.59 756.49 443.5C756.84 446.8 757.36 450.74 757.64 452.25L758.16 455H769.63C782.76 455 786.15 456.14 787.89 461.12C789.41 465.46 789.28 468.81 787.41 474.3C785.67 479.43 778.9 485.93 771.59 489.5C767.72 491.39 767.51 491.72 767.76 495.5C767.91 497.7 768.14 505.12 768.26 512L768.5 524.5L762.82 537.67C753.24 559.87 752.5 563 752.5 581.54C752.5 598.9 752.31 599.62 746.12 606.34C743.32 609.38 735.06 613.91 728.5 616C722.17 618.01 715.73 621.57 712.81 624.66C711.33 626.22 708.68 630.58 706.92 634.34C703.97 640.65 703.66 642.32 702.92 655.84C702.48 663.9 702.09 677.31 702.06 685.62C701.99 703.51 701.57 706.16 698.24 709.49C695.92 711.81 695.03 712 686.44 712C678.02 712 676.88 711.77 674.21 709.53C672.43 708.02 670.85 705.38 670.2 702.78C669.6 700.42 668.87 686.45 668.57 671.73C668.14 650.29 667.72 644.37 666.48 641.96L664.93 638.96L661.06 642.07C658.94 643.78 656.91 646.37 656.55 647.84C656.2 649.3 655.69 662.81 655.42 677.86C654.9 707.47 654.43 710.13 649.39 712.04C645.65 713.47 632.97 713.13 629.24 711.51Z" fill="black"/>
</svg>
