<svg width="2240" height="1344" viewBox="0 0 2240 1344" fill="none" xmlns="http://www.w3.org/2000/svg">
<path fill-rule="evenodd" clip-rule="evenodd" d="M1875 1068.33C1856.87 1067.35 1855.17 1067.01 1854.21 1064.17C1853.2 1061.17 1854.15 1056.63 1857.06 1050.47C1861.27 1041.58 1862.1 1027.16 1859.44 1009.26C1857.27 994.63 1854.82 988.43 1850.69 987.06C1848.45 986.32 1846.42 986.32 1843.99 987.04C1839.79 988.29 1811.47 987.41 1805.29 985.83C1794.1 982.98 1792.59 986.45 1791.06 1018.5C1789.95 1041.72 1788.34 1059.45 1786.96 1063.63C1786.18 1065.99 1785.16 1066.92 1782.84 1067.38C1778.74 1068.2 1765.15 1068.08 1756.76 1067.15C1746.47 1066 1745.33 1063.43 1749.1 1049.98C1752.58 1037.57 1753.91 1022.43 1752.96 1006C1752.19 992.79 1751.15 986.31 1746.64 967C1745.81 963.42 1744.59 957.12 1743.92 953C1742.41 943.59 1741 941.31 1735.17 938.84C1714.89 930.29 1708.9 923.6 1701.29 901C1697.94 891.05 1695.91 886.48 1694.51 885.72C1690.05 883.3 1684.07 883.28 1673.72 885.63C1656.01 889.66 1648.53 888.44 1640.64 880.21C1633.79 873.07 1633.85 862.48 1640.8 852.51C1644.38 847.37 1648.79 844.45 1656.63 842.03C1664.74 839.53 1668.24 837.69 1675 832.42C1682.15 826.84 1684.56 825.99 1696.23 824.95C1703.67 824.29 1707.67 823.34 1713.17 820.92C1719.29 818.24 1721.19 817.84 1725.71 818.31C1734.49 819.22 1740 823.93 1740 830.55C1740 832.36 1738.45 834.2 1734.09 837.59C1727.61 842.63 1727.89 841.35 1731.03 851.25C1731.59 853.04 1732.46 860.8 1732.96 868.5C1733.97 884.14 1736.76 893.54 1741.79 898.23C1745.61 901.79 1754.29 904.45 1762 904.42C1774.35 904.37 1784.77 896.07 1791.1 881.25C1797.94 865.23 1809.23 857 1824.36 857C1831.76 857 1838.59 859.12 1845.5 863.57C1853.82 868.93 1856.67 872.85 1863.31 888.09C1866.3 894.94 1872.67 901.25 1880 904.63C1891.36 909.85 1894.6 911.58 1898.3 914.38C1903.58 918.37 1912.46 930.69 1918.23 942C1925.59 956.46 1927.62 959.83 1931.53 964.16C1935.91 969.01 1935.03 971 1928.52 971C1924.57 971 1923.74 970.47 1916.62 963.4C1911.55 958.36 1908.46 955.99 1907.44 956.38C1905.82 957.01 1902.06 964.43 1902.02 967.1C1902.01 967.97 1901.35 970 1900.56 971.6C1897.81 977.12 1897.11 989.42 1898.28 1011.5C1898.89 1023.05 1899.29 1039.01 1899.16 1046.97C1898.81 1069.07 1898.21 1069.59 1875 1068.33Z" fill="black"/>
</svg>
