<svg width="2240" height="1344" viewBox="0 0 2240 1344" fill="none" xmlns="http://www.w3.org/2000/svg">
<path fill-rule="evenodd" clip-rule="evenodd" d="M538.26 364.9C537.08 364.47 535.34 362.92 534.38 361.46C532.77 359 532.76 358.26 534.19 350.73C536.12 340.62 535.26 336.99 529.63 331.4C523.85 325.66 515.99 322.88 503.75 322.24C492.93 321.68 492.46 321.86 480.66 331.18C478 333.28 475.44 335 474.98 335C474.51 335 471.9 336.39 469.17 338.08C464.26 341.14 464.12 341.16 455.81 340.31C450.87 339.8 445.82 339.82 443.54 340.36C439.27 341.37 434.01 340.04 430.5 337.06C429.4 336.13 425.86 333.82 422.64 331.93C414.51 327.18 408.36 319.79 406.92 313.06C404.99 304.04 407.24 287.82 412.2 275.04C417.44 261.56 417.37 259.61 411.53 254.65C408.18 251.8 407 250.07 407 248.03C407 246.51 406.08 244.1 404.95 242.66C403.45 240.75 403.15 239.58 403.84 238.28C404.92 236.24 403.92 215.38 401.92 198.32C400.34 184.82 401.12 180.18 405.31 178.18C408.85 176.49 411.85 177.59 424.99 185.39C435.58 191.68 438.65 192.41 454.51 192.46L465.51 192.5L473.13 187.76C483.33 181.4 488.75 179.05 493.22 179.02C496.35 179 497.19 179.48 498.47 181.95C500.43 185.74 500.41 193.55 498.39 206.87C497.26 214.32 496.95 220.97 497.33 229.11C497.76 238.09 497.57 241.16 496.5 242.7C495.74 243.79 494.34 246.66 493.39 249.09C492.44 251.51 490.17 254.77 488.33 256.32C484.19 259.83 484.15 261.6 487.89 273.4C489.47 278.4 491.53 286.77 492.46 292C493.39 297.23 494.34 302.46 494.57 303.64C495.11 306.42 496.34 306.83 509.47 308.56C527.11 310.88 534.77 313.71 544.3 321.42C554.11 329.36 557.29 347.66 551.02 359.97C549.88 362.19 548.63 364.01 548.23 364.02C547.83 364.04 545.91 364.42 543.96 364.87C542.01 365.33 539.45 365.34 538.26 364.9Z" fill="black"/>
</svg>
