<svg width="2240" height="1344" viewBox="0 0 2240 1344" fill="none" xmlns="http://www.w3.org/2000/svg">
<path fill-rule="evenodd" clip-rule="evenodd" d="M677.61 1272.7C676.25 1271.34 674.65 1268.42 674.05 1266.2C673.1 1262.65 672.44 1262 668.43 1260.63C663.53 1258.96 658.23 1255.03 656.29 1251.63C654.1 1247.8 654.84 1245.08 659.41 1240.2C663.36 1235.98 668 1226.08 668 1221.88C668 1219.6 673.14 1213.97 677.02 1211.99C682.89 1208.99 690.25 1209.56 705.27 1214.18C709.8 1215.57 710.65 1217.9 709.14 1224.72C708.55 1227.35 707.34 1232.88 706.44 1237C705.54 1241.12 703.73 1246.47 702.41 1248.88C699.48 1254.21 699.37 1257.38 702 1260.73C705.68 1265.41 704.78 1266.76 697.43 1267.54C692.15 1268.11 690.23 1268.82 687.7 1271.12C685.97 1272.71 684.24 1274 683.86 1274C683.48 1274 682.47 1274.27 681.63 1274.59C680.72 1274.94 679.07 1274.16 677.61 1272.7Z" fill="black"/>
</svg>
