<svg width="2240" height="1344" viewBox="0 0 2240 1344" fill="none" xmlns="http://www.w3.org/2000/svg">
<path fill-rule="evenodd" clip-rule="evenodd" d="M342.5 1275.29C333.98 1274.27 332.35 1270.59 331.53 1250.55C330.89 1234.91 329.09 1227.74 325.48 1226.35C324.59 1226.01 322.83 1223.4 321.57 1220.56C319.43 1215.72 314.81 1211.02 309.42 1208.2C308.16 1207.54 296.74 1206.89 280.42 1206.54C265.61 1206.22 249.6 1205.73 244.84 1205.45L236.18 1204.94L234.01 1207.99C230.7 1212.63 228.04 1231.2 228.13 1249.05C228.18 1259.59 227.8 1264.54 226.75 1267.05C224.28 1272.97 222.97 1273.48 210.27 1273.49C199.54 1273.5 198.71 1273.36 196.97 1271.21C195.95 1269.95 194.8 1266.8 194.42 1264.21C193.51 1257.89 191.42 1254 188.95 1254C186.17 1254 184.77 1249.94 186.17 1245.95C187.11 1243.25 186.97 1242.53 185.19 1240.75L183.12 1238.68L182.43 1241.43C182.05 1242.94 182.05 1247.96 182.42 1252.58C183 1259.67 182.81 1261.64 181.2 1265.24C180.15 1267.58 178.38 1270.31 177.26 1271.3C174.56 1273.69 162.96 1274.67 156.27 1273.07C151.35 1271.88 150.46 1271.02 148.46 1265.5C148.06 1264.4 147.46 1248.85 147.12 1230.95L146.5 1198.4L142.28 1191.95C136.58 1183.25 132.33 1180.15 120.7 1176.26C103.93 1170.64 96.2701 1165.65 90.1001 1156.33C87.3301 1152.15 87.0001 1150.87 87.0001 1144.2C87.0001 1137.73 87.4001 1136.04 90.0301 1131.44C91.7001 1128.52 93.1201 1124.87 93.1701 1123.32C93.3501 1118.47 90.7701 1108.67 88.2501 1104.64C81.7601 1094.26 78.8701 1083.33 78.0801 1066.26L77.4801 1053.02L73.8001 1049.99C68.7401 1045.82 61.4201 1034.44 60.3101 1029C59.1701 1023.46 60.1401 1018.42 62.8601 1015.7C67.2001 1011.36 83.5901 1012.8 93.6201 1018.41C97.9301 1020.82 102.02 1020.88 103.93 1018.58C104.48 1017.92 105.36 1012.81 105.88 1007.23C106.96 995.81 108.78 991.62 113.35 990.03C123.44 986.51 128.25 991.27 129.94 1006.45C130.58 1012.19 131.32 1014.76 132.6 1015.7C133.83 1016.59 138.08 1017 146.19 1017C160.4 1017 161.47 1016.37 162.5 1007.33C163.4 999.38 164.65 995.67 167.28 993.21C170.95 989.77 174.35 988.94 179.1 990.31C185.53 992.18 186.95 994.85 187.1 1005.5C187.18 1010.65 187.84 1016.04 188.66 1018.09L190.09 1021.68L194.8 1020.36C197.38 1019.63 202.82 1017.9 206.88 1016.52C218.56 1012.54 226.74 1013.32 234.19 1019.12C237.41 1021.63 238.73 1022 244.5 1022C258.34 1022 268.27 1024.34 285 1031.56C295.52 1036.1 316.84 1043.73 322.59 1045.02C324.95 1045.55 333.47 1046.67 341.53 1047.52C367.9 1050.29 396.46 1056.7 405.23 1061.82C407.76 1063.29 408.34 1063.27 413.23 1061.45C417.16 1060 421.04 1059.5 428.52 1059.5C438.18 1059.5 438.74 1059.62 443.76 1062.84C450.04 1066.87 455.51 1075.23 457.12 1083.25C458.18 1088.54 457.21 1097.73 453.06 1121.5C452.11 1126.96 453.21 1140.02 454.95 1144C455.56 1145.38 457.17 1148.04 458.53 1149.91C462.04 1154.72 464.09 1162.12 464.65 1172C465.49 1186.8 461.1 1191.37 446.12 1191.28C435.89 1191.22 430.07 1189.49 428.32 1186C427.63 1184.62 426.54 1176.83 425.9 1168.68C425.26 1160.54 424.41 1154.24 424.02 1154.68C423.63 1155.13 422.75 1158.72 422.08 1162.66C421.33 1167 420.15 1170.46 419.07 1171.44C417.73 1172.65 417.11 1175.29 416.61 1181.98C416.24 1186.89 415.21 1192.62 414.31 1194.71C412.51 1198.94 411.19 1222.04 411.07 1251.53C410.99 1270.72 410.54 1272.2 404.22 1273.96C398.36 1275.58 385.35 1275.27 382.55 1273.44C379.47 1271.42 378.29 1265.93 377.57 1250.24C376.98 1237.17 375.81 1232.93 371.75 1229.19L369.24 1226.88L367.12 1229.57C365.95 1231.06 364.99 1233.22 364.97 1234.38C364.73 1249.7 363.58 1269.87 362.87 1271.22C361.49 1273.83 349.82 1276.16 342.5 1275.29Z" fill="black"/>
</svg>
