<svg width="2240" height="1344" viewBox="0 0 2240 1344" fill="none" xmlns="http://www.w3.org/2000/svg">
<path fill-rule="evenodd" clip-rule="evenodd" d="M1452 959.31C1450.62 959.08 1447.38 958.21 1444.79 957.38C1440.96 956.15 1439.65 955.08 1437.79 951.68C1434.15 945.03 1431.58 944.31 1408.86 943.62L1389.22 943.02L1383.45 947.5C1373.64 955.12 1365.42 958 1353.52 958C1348.39 958 1348.21 957.89 1342.65 951.75C1339.53 948.31 1336.18 944.56 1335.19 943.41C1333.49 941.43 1332.07 941.29 1306.95 940.62C1262.97 939.44 1240.69 938.28 1237 936.97C1232.05 935.21 1228.31 931.4 1226.33 926.08C1225.4 923.56 1222.94 919.1 1220.88 916.17C1216.75 910.32 1215.26 903.45 1216.42 895.69C1217.35 889.47 1222.55 882.15 1228 879.4C1232.65 877.05 1249.26 873.8 1266 871.96C1271.22 871.39 1277.3 870.45 1279.5 869.88C1285.93 868.2 1295.24 863.83 1298.73 860.85C1302.88 857.31 1307.7 856.45 1314.85 857.97C1319.13 858.88 1322.05 858.91 1326.47 858.09C1336.42 856.25 1342.23 856.66 1346.42 859.51C1356.02 866.03 1354.74 865.83 1390.59 866.39C1408.69 866.67 1429.82 867.3 1437.55 867.8L1451.61 868.7L1462.05 874.05L1472.5 879.4L1488.95 879.18C1506.51 878.95 1507.24 878.77 1513.25 873.18C1516.59 870.08 1516.87 865.63 1514.07 860.15C1510.69 853.51 1499.77 850.58 1494.09 854.78C1490.28 857.59 1486.42 857.66 1484.97 854.94C1482.31 849.97 1487.58 842.8 1497.38 838.06C1501.63 836 1503.21 835.79 1511.34 836.22C1518.79 836.61 1521.44 837.21 1525.5 839.39C1532.71 843.26 1536.11 845.93 1541.31 851.78C1546.43 857.55 1548.88 864.07 1550.98 877.5C1552.18 885.21 1552.11 885.99 1549.05 899C1546.57 909.57 1545.1 913.69 1542.27 918C1538.32 924.03 1530.64 931.63 1527.5 932.63C1526.4 932.98 1524.38 934.03 1523 934.96C1518.3 938.15 1495.84 943 1485.78 943C1478.34 943 1474.16 944.77 1470.19 949.59C1465.72 955.01 1459.09 960.02 1456.61 959.86C1455.45 959.79 1453.38 959.54 1452 959.31Z" fill="black"/>
</svg>
