<svg width="2240" height="1344" viewBox="0 0 2240 1344" fill="none" xmlns="http://www.w3.org/2000/svg">
<path fill-rule="evenodd" clip-rule="evenodd" d="M255.44 350.99C252.66 350.71 249.28 349.7 247.94 348.75C246.6 347.79 244.6 346.37 243.5 345.59C240.43 343.4 237.95 343.49 232.52 346C228.8 347.72 225.61 348.32 219.85 348.4C212.63 348.49 211.96 348.32 209.07 345.56C205.42 342.08 205.28 340.31 208.18 334.71C211.05 329.17 211.13 316.91 208.31 313.77C206.63 311.89 205.65 311.79 194.5 312.28C187.9 312.58 181.74 313.12 180.81 313.49C177.49 314.82 175.96 318.92 174.99 329.11C173.43 345.44 169.91 349.81 157.6 350.69C149.33 351.29 142.92 349.3 141.13 345.58C138.81 340.75 139.14 336.79 142 335.34C144.9 333.87 145.77 331.44 145.89 324.5C146.04 315.18 143.04 314.61 140.47 323.47C139.61 326.42 138.26 329.37 137.48 330.02C136.7 330.67 135.76 332.84 135.39 334.85C134.24 341.25 132.19 344.01 126.68 346.57C116.62 351.25 105.36 348.96 103.6 341.88C102.84 338.79 103.17 337.32 105.8 331.88C109.61 324.03 110.82 318.86 112.4 303.6L113.64 291.7L109.11 288.6C99.51 282.02 94.32 275.13 91.99 265.88C90.81 261.18 91.15 258.34 94.98 240.57C97.09 230.76 97.09 230.6 95.2 228.07C94.15 226.65 90.86 223.82 87.9 221.78C76.33 213.8 71.77 205.97 75.27 200.1C78.57 194.56 94.96 185.57 104.09 184.28C107.12 183.86 108.28 184.3 111.51 187.14L115.34 190.5L132.97 190.16C144.14 189.94 152.16 190.24 154.85 190.96C159.93 192.33 161.62 191.88 166.66 187.86C170.02 185.19 171.09 184.86 175.26 185.26C182.61 185.95 197.8 194.66 202.47 200.85C204.01 202.89 204.09 203.75 203.08 207.12C201.65 211.9 197.36 216.96 192.52 219.56C189.18 221.36 186.93 225.26 188.39 226.72C188.73 227.06 193.17 226.82 198.26 226.18C209.09 224.82 236.03 226.05 247.92 228.46C258 230.5 272.61 237.72 277.4 243.02C279.46 245.3 283.02 248.01 285.32 249.06C292.66 252.39 305.91 251 312.8 246.17C316.36 243.68 322.3 241.79 324.26 242.54C325.84 243.15 327.36 246.31 328.42 251.2C329.2 254.78 326.43 262.83 323.26 266.2C318.57 271.18 314.82 272.24 302.36 272.11L291 271.99V274.75C290.99 282.03 288.9 310.29 287.91 316.5C286.66 324.35 283.53 336.5 281.51 341.32C280.05 344.8 276.63 348.28 273.5 349.45C270.1 350.73 260.75 351.53 255.44 350.99ZM246.81 321.72C246.64 320.03 245.94 318.47 245.25 318.24C244.34 317.95 244 319.46 244 323.75C244 327 244.33 330 244.73 330.4C245.75 331.42 247.18 325.45 246.81 321.72Z" fill="black"/>
</svg>
