<svg width="2240" height="1344" viewBox="0 0 2240 1344" fill="none" xmlns="http://www.w3.org/2000/svg">
<path fill-rule="evenodd" clip-rule="evenodd" d="M871.32 1058.05C870.11 1057.53 868.61 1056.15 867.98 1054.97C867.26 1053.61 866.52 1041.78 865.96 1022.66C865.48 1006.07 864.61 984.86 864.03 975.52C862.68 953.72 863.11 954.29 849.68 956.45C820.45 961.15 801.43 953.53 795.01 934.56C792.7 927.73 792.27 909.17 794.11 896C796.61 878.11 796.75 875.57 795.37 872.82C794.63 871.35 793.01 869.82 791.77 869.43C786.83 867.86 774.07 855.66 768.99 847.64C765.77 842.57 763 835.13 763 831.58C763 830.28 763.84 828.18 764.88 826.9C766.51 824.88 767.62 824.59 773.63 824.62C783.75 824.68 800.92 831.99 809.12 839.73C812.13 842.58 813.56 843.18 817.62 843.33L822.5 843.5L822.16 837.83C821.85 832.57 822.03 832.03 824.58 830.35C829.6 827.07 849.75 829.09 856.71 833.57C859.57 835.41 868.38 835.45 869.89 833.63C873.6 829.16 894.7 823.8 900.26 825.91C905.73 827.99 906.19 833.55 901.71 843.33C900.38 846.23 897.65 850.75 895.65 853.37C889.47 861.47 888.38 859.73 916.98 887.5C929.62 899.78 935.5 907.47 936.36 912.86C936.72 915.07 937.38 917.12 937.84 917.4C938.65 917.9 948.94 918.85 978 921.1C985.42 921.67 997.56 922.98 1004.98 924C1017.06 925.66 1019.39 926.32 1027.48 930.36C1032.44 932.85 1039.12 935.9 1042.33 937.16C1048.72 939.65 1054.17 944.83 1056.76 950.86C1057.74 953.15 1058.57 959.34 1059 967.5C1059.66 980.19 1059.76 980.64 1063.33 986.5C1065.35 989.8 1066.99 993.4 1066.99 994.5C1066.98 1001.16 1061.46 1010.11 1056.11 1012.15C1052.58 1013.49 1044.15 1011.36 1040.86 1008.3C1038.94 1006.51 1038.01 1006.17 1037.46 1007.06C1036.59 1008.48 1035.54 1017.74 1034.02 1037.5C1033.43 1045.2 1032.46 1052.72 1031.87 1054.21C1030.44 1057.79 1025.56 1059.33 1017.28 1058.81C1010.82 1058.39 1010.37 1058.15 1007.5 1053.58C1006.65 1052.23 1005.94 1052.16 1002.75 1053.16C1000.69 1053.81 999 1054.73 999 1055.22C999 1056.66 992.35 1059 988.28 1058.99C977.66 1058.95 976.95 1057.36 976.36 1032.13C976.1 1021.33 975.4 1010.57 974.8 1008.2C973.04 1001.23 970.82 1000.59 951.02 1001.32C931.75 1002.02 927.37 1002.98 925.8 1006.81C925.18 1008.33 924.44 1019.62 924.1 1032.7C923.68 1048.84 923.13 1056.27 922.29 1057.12C921.62 1057.78 917.54 1058.53 913.23 1058.78C906.05 1059.2 905.15 1059.03 902.61 1056.85L899.84 1054.46L899.67 1035.81C899.58 1025.56 899.18 1016.84 898.78 1016.45C897.29 1014.96 893.24 1018.98 892.02 1023.18C891.33 1025.56 890.48 1033.67 890.13 1041.22C889.37 1057.72 889.05 1058.26 879.76 1058.69C876.32 1058.85 872.52 1058.56 871.32 1058.05ZM1047.75 975.79C1049.14 972.95 1048.12 961.72 1046.32 959.92C1043.08 956.68 1037.73 970.13 1040.15 975.44C1042.05 979.6 1045.8 979.78 1047.75 975.79Z" fill="black"/>
</svg>
