<svg width="2240" height="1344" viewBox="0 0 2240 1344" fill="none" xmlns="http://www.w3.org/2000/svg">
<path fill-rule="evenodd" clip-rule="evenodd" d="M519.89 891.51C517.36 890.83 513.01 889.04 510.22 887.52C504.51 884.41 502.97 881.22 505.4 877.52C506.22 876.27 506.99 872.72 507.11 869.64C507.39 862.89 506.23 861.3 498.98 858.5C489.41 854.79 479.01 840.7 477.54 829.46C476.48 821.36 476.18 820.5 473.02 816.53C470.93 813.9 470 811.62 470 809.15C470 806.02 470.93 804.65 477.43 798.28C481.51 794.28 485.41 791 486.08 791C486.76 791 488.93 792.72 490.9 794.83C492.88 796.94 495.3 798.96 496.29 799.31C497.27 799.67 508.2 800.01 520.59 800.06C547.56 800.18 548.02 800.04 547.96 791.73C547.95 788.85 547.29 783.58 546.5 780C542.49 761.75 547.52 749.44 560.97 744.61C569.86 741.41 583 745.27 588.48 752.68C593.04 758.84 598.98 763.82 607.05 768.23C611.2 770.5 615.44 773.48 616.47 774.84C618.33 777.31 618.32 777.33 615.49 779.59C613.6 781.1 609.62 782.41 603.63 783.51C590.49 785.93 584.53 788.41 581.99 792.51C580.07 795.62 579.94 796.93 580.43 807.71C581.48 830.68 581.31 837.67 579.61 841.09C577.11 846.09 572.08 852.17 567.26 856C564.84 857.92 561.53 860.85 559.91 862.5C557.19 865.25 557.09 865.6 558.67 866.75C559.61 867.44 562.3 868 564.64 868C572.15 868 576 871.25 576 877.58C576 882.2 573.3 884.8 567.19 886.06C561.81 887.18 551.27 886.9 549.14 885.59C548.59 885.25 547.86 882.39 547.51 879.23C546.76 872.45 544.39 866.38 542.12 865.45C539.71 864.45 523.54 864.05 522.09 864.94C521.4 865.37 520.99 867.01 521.17 868.6C521.43 870.9 522.41 871.91 526.02 873.62C532.1 876.5 533.44 879.15 531.74 884.96C529.92 891.2 526.26 893.22 519.89 891.51Z" fill="black"/>
</svg>
