<svg width="2240" height="1344" viewBox="0 0 2240 1344" fill="none" xmlns="http://www.w3.org/2000/svg">
<path fill-rule="evenodd" clip-rule="evenodd" d="M1509.5 793.67C1507.85 792.92 1505.82 791.49 1505 790.5C1504.18 789.51 1502.16 788.13 1500.52 787.44C1497.99 786.38 1497.02 786.46 1494.02 787.97C1492.09 788.95 1488.12 790.26 1485.2 790.88C1479.68 792.05 1441.22 792.43 1437.21 791.36C1432.72 790.16 1431.81 786.22 1432.12 769.15C1432.27 760.54 1432.42 748.9 1432.45 743.28C1432.51 730.1 1432.11 729.63 1420.43 729.15C1415.75 728.95 1410.42 729.07 1408.57 729.42C1403.64 730.35 1402.8 733.19 1398.49 763.5C1394.08 794.57 1395.43 793.15 1369.65 793.8C1359.52 794.05 1348.7 793.94 1345.59 793.55C1338.75 792.7 1337.03 790.64 1335.82 781.81C1335.37 778.51 1334.71 775.34 1334.35 774.76C1333.44 773.28 1330.09 779.91 1330.04 783.3C1329.99 786.55 1326.18 790.55 1321.07 792.72C1316.5 794.66 1277.76 793.59 1274.33 791.42C1271.27 789.5 1270.19 782.8 1269.6 762.16C1268.95 739.48 1268.01 738.25 1258.16 747.06C1246.38 757.59 1233.86 761.43 1216.09 759.96C1201.94 758.78 1186.54 751.18 1181.06 742.67C1179.94 740.93 1177.04 736.44 1174.62 732.69C1171.96 728.58 1169.95 724.15 1169.55 721.5C1168.67 715.63 1168.61 657.57 1169.48 652.5C1170.9 644.22 1178.26 615.23 1180.64 608.5C1182.01 604.65 1184.4 599.48 1185.96 597C1187.52 594.52 1190.6 588.66 1192.82 583.98C1195.03 579.29 1199.52 571.86 1202.79 567.48C1209.41 558.62 1228.29 540.2 1234.5 536.56C1260.52 521.28 1283.23 517.59 1317.76 523.02C1324.09 524.01 1325.63 523.93 1329.76 522.39C1332.37 521.41 1335.4 520.08 1336.5 519.42C1342.42 515.88 1352.68 513.5 1362 513.5C1372.05 513.5 1376.2 514.63 1387.94 520.55C1393.32 523.27 1393.62 523.3 1415.94 523.62C1437.7 523.92 1456.95 525.15 1469.5 527.04C1472.8 527.54 1479.66 528.41 1484.74 528.98C1495.98 530.24 1518.48 535.92 1526 539.39C1529.03 540.78 1535.1 544.63 1539.5 547.95C1555.03 559.64 1554.12 559.19 1564.5 560.15C1579.34 561.51 1588.96 566.28 1593.16 574.38C1595.01 577.95 1595.14 579.8 1594.85 598.16L1594.52 618.08L1597.8 620.64C1605.46 626.64 1610.03 642.99 1605.46 648.05C1602.36 651.47 1598.02 653.24 1592.39 653.38C1588.24 653.47 1586.67 653.04 1584.77 651.25C1581.97 648.62 1580.24 648.44 1577.34 650.47C1575.52 651.75 1575.16 653.26 1574.71 661.72C1574.43 667.1 1573.74 676.9 1573.18 683.5C1571.03 709.02 1569.94 732.57 1569.7 759.08C1569.42 789.33 1569.15 790.74 1563.2 793.2C1558.89 794.99 1513.26 795.39 1509.5 793.67ZM1498.54 755.3C1498.88 737.63 1498.39 732.21 1496.62 733.98C1495.48 735.13 1495.49 766.49 1496.64 770.33C1497.79 774.18 1498.25 770.55 1498.54 755.3ZM1579.62 604.12C1580.47 601.72 1581.24 596.69 1581.33 592.96C1581.48 587.02 1581.2 585.84 1579.08 583.58C1575.08 579.33 1568 580.43 1568 585.31C1568 586.37 1569.33 591.56 1570.95 596.86C1572.57 602.16 1574.19 608.74 1574.54 611.49L1575.19 616.48L1576.63 612.49C1577.42 610.29 1578.76 606.53 1579.62 604.12Z" fill="black"/>
</svg>
