<svg width="2240" height="1344" viewBox="0 0 2240 1344" fill="none" xmlns="http://www.w3.org/2000/svg">
<path fill-rule="evenodd" clip-rule="evenodd" d="M1488.33 373.35C1487.92 371.78 1487.56 366.9 1487.54 362.5C1487.51 355.74 1487.93 353.65 1490.25 349C1494.47 340.54 1496.21 335 1496.49 329.19C1496.91 320.29 1497.9 320.5 1455.88 320.5C1436.24 320.5 1419.97 320.27 1419.73 320C1416.61 316.43 1417.49 311.2 1421.84 307.46C1424.15 305.47 1424.43 304.33 1425.22 293.4C1426.21 279.64 1429.65 257.27 1431.64 251.62C1433.6 246.06 1433.32 243.1 1430.37 238C1427.33 232.74 1422 217.98 1422 214.82C1422 211.9 1419.51 201.36 1416.49 191.5C1415.15 187.1 1413.43 179.37 1412.68 174.33C1410.49 159.6 1413 156.54 1425.47 158.72C1428.79 159.3 1435.78 161.82 1441 164.33C1457.64 172.3 1467.08 172.76 1476.5 166.08C1481.86 162.27 1486.87 160.26 1496.81 157.93C1505.71 155.85 1507.98 156.22 1510.04 160.08C1512.23 164.16 1509.65 177.45 1504.41 189.15C1501.97 194.59 1500.55 199.83 1499.51 207.28C1498.04 217.74 1497.11 220.14 1488.7 235.26C1486.72 238.8 1486.8 241.03 1489.38 254.5C1492.88 272.78 1494 279.69 1494 283.03C1494 284.97 1494.7 287.56 1495.56 288.78C1496.94 290.75 1497.99 291 1504.81 291.01C1515.45 291.02 1524.57 292.62 1530.62 295.55C1548.21 304.05 1555.58 321.81 1548.09 337.65C1542.26 349.97 1535.42 354.97 1516.21 360.95C1508.02 363.5 1505.17 364.9 1502.21 367.83C1500.17 369.85 1498.05 372.26 1497.5 373.2C1496.95 374.13 1494.83 375.19 1492.79 375.55C1489.34 376.16 1489.04 376.01 1488.33 373.35Z" fill="black"/>
</svg>
