<svg width="2240" height="1344" viewBox="0 0 2240 1344" fill="none" xmlns="http://www.w3.org/2000/svg">
<path fill-rule="evenodd" clip-rule="evenodd" d="M975.5 1274.58C965.67 1271.79 958.88 1267.36 956.24 1262.02C954.57 1258.65 954.41 1257.24 955.21 1252.87C956.45 1246.01 958.05 1243.82 964.71 1239.84C967.79 1238.01 971.48 1235.35 972.91 1233.95C974.33 1232.55 977.2 1230.16 979.27 1228.63C987.6 1222.52 988.48 1216.6 982.41 1207.49C980.22 1204.2 977.83 1200.15 977.11 1198.5C975.32 1194.38 973.84 1177.77 974.63 1170.65C975.19 1165.62 975.81 1164.27 979.08 1161.04C981.42 1158.72 984.54 1156.85 987.19 1156.18C991.27 1155.14 991.86 1155.29 998.7 1159.04C1007.97 1164.14 1012.77 1164.35 1018.78 1159.93C1024.65 1155.61 1032.14 1154.88 1036.91 1158.15C1038.79 1159.44 1041.26 1162.3 1042.41 1164.5C1044.25 1168.03 1044.46 1169.95 1044.22 1180.99C1044.06 1187.86 1043.43 1195.19 1042.8 1197.28C1042.17 1199.37 1039.49 1203.56 1036.83 1206.6C1031.45 1212.74 1030.78 1216.07 1033.79 1221.69C1035.59 1225.05 1049.33 1238 1051.09 1238C1051.66 1238 1054.52 1240.27 1057.46 1243.05C1063.28 1248.55 1064.65 1252.21 1063.48 1259.13C1062.93 1262.39 1062.1 1263.44 1058.35 1265.64C1053.96 1268.21 1053.81 1268.23 1049.7 1266.61C1045.75 1265.06 1045.38 1265.07 1043.01 1266.81C1041.63 1267.83 1040.08 1269.59 1039.56 1270.72C1039.04 1271.86 1036.67 1273.74 1034.28 1274.89C1030.24 1276.86 1028.38 1277 1006.72 1276.93C985.71 1276.86 982.74 1276.64 975.5 1274.58Z" fill="black"/>
</svg>
