<svg width="2240" height="1344" viewBox="0 0 2240 1344" fill="none" xmlns="http://www.w3.org/2000/svg">
<path fill-rule="evenodd" clip-rule="evenodd" d="M2065.04 1287.79C2058.58 1287.12 2057.29 1286.64 2055.38 1284.26C2052.65 1280.85 2052.03 1277.11 2053.22 1271.12C2053.73 1268.56 2053.81 1260.93 2053.41 1254C2052.43 1237.18 2051.88 1223.61 2051.92 1217.23C2051.93 1214.33 2051.35 1209.6 2050.61 1206.73C2049.48 1202.32 2049.49 1201.18 2050.66 1199.39C2051.67 1197.86 2051.79 1196.57 2051.09 1194.74C2050.56 1193.35 2050.38 1191.27 2050.68 1190.12C2051.55 1186.8 2050.19 1183 2048.14 1183C2046.2 1183 2043.7 1185.39 2042.71 1188.19C2042.3 1189.35 2040.75 1189.98 2037.8 1190.19L2033.5 1190.5L2032.39 1209C2031.78 1219.17 2030.95 1228.47 2030.55 1229.65C2030.14 1230.84 2030.3 1234.91 2030.88 1238.69C2031.47 1242.48 2032 1252.61 2032.05 1261.21C2032.19 1281.71 2031.36 1283.34 2020.34 1284.54C2012.94 1285.35 2007.25 1283.79 2006.04 1280.62C2005.59 1279.42 2005.43 1269 2005.7 1257.47C2006.37 1229.05 2006.38 1230.21 2005.33 1215.25C2004.82 1207.96 2003.96 1201.56 2003.42 1201.02C2002.77 1200.37 2001.15 1200.94 1998.72 1202.68C1995.82 1204.74 1994.99 1206 1994.98 1208.41C1994.96 1210.11 1994.52 1213.3 1994 1215.5C1992.85 1220.31 1990.27 1239.79 1989.49 1249.5C1989.18 1253.35 1988.56 1261.78 1988.1 1268.23C1987.64 1274.75 1986.74 1280.61 1986.06 1281.43C1985.39 1282.24 1983.28 1283.41 1981.36 1284.04C1976.99 1285.49 1964.43 1284.4 1961.11 1282.29C1958.74 1280.79 1958.72 1280.62 1959.43 1270.13C1959.83 1264.28 1960.49 1253.62 1960.9 1246.44C1961.31 1239.25 1961.92 1232.94 1962.25 1232.41C1962.58 1231.87 1963.12 1223.8 1963.45 1214.47C1963.79 1205.14 1964.52 1193.45 1965.09 1188.5C1966.58 1175.49 1967.21 1154.26 1966.16 1152.24C1965.66 1151.28 1965.53 1147.35 1965.88 1143.5C1966.4 1137.63 1965.36 1118.22 1964.47 1117.18C1963.63 1116.21 1955.86 1119.39 1954.96 1121.08C1954.27 1122.36 1954.06 1127.54 1954.37 1135.3C1954.64 1142.01 1954.9 1147.55 1954.93 1147.6C1954.97 1147.66 1956.12 1148.92 1957.5 1150.41C1959.34 1152.39 1960 1154.21 1960 1157.31C1960 1165.2 1957.08 1171 1950.49 1176.18C1948.28 1177.93 1947.9 1177.94 1944.11 1176.43C1939.06 1174.41 1935.62 1168.02 1935.55 1160.52C1935.51 1156.4 1936.11 1154.63 1938.87 1150.64C1942.12 1145.97 1942.21 1145.56 1941.38 1140.14C1939.1 1125.37 1941.64 1109.17 1946.93 1104.71C1953.85 1098.89 1964.72 1096.06 1969.62 1098.81C1970.96 1099.56 1974.05 1098.43 1982.94 1093.95C1989.31 1090.74 1996.59 1087.65 1999.13 1087.08C2001.66 1086.52 2004.98 1085.58 2006.5 1085C2011.12 1083.24 2026.84 1080.15 2039.25 1078.56C2050.7 1077.09 2055.42 1075.61 2057.83 1072.71C2060.13 1069.93 2062.03 1061.35 2062.97 1049.49C2063.49 1042.89 2064.35 1035.24 2064.89 1032.49C2065.42 1029.75 2066.14 1022.62 2066.47 1016.65C2066.8 1010.68 2067.74 1002.95 2068.54 999.48C2069.35 996 2070.46 987.84 2071.01 981.33C2071.56 974.82 2072.5 967.7 2073.08 965.5C2073.67 963.3 2074.54 954.98 2075.02 947C2075.51 938.77 2076.59 930.34 2077.51 927.5C2078.54 924.33 2079.49 915.95 2080.09 904.64C2080.61 894.81 2081.5 883.78 2082.07 880.14C2084.53 864.28 2084.47 861.71 2081.61 858.32C2073.95 849.21 2069.79 832.77 2071.97 820.24L2073.14 813.52L2070.06 810.76C2068.36 809.24 2066.35 808 2065.6 808C2064 808 2057.97 800.74 2056.2 796.68C2052.64 788.48 2052.47 776.11 2055.87 771.92C2057.02 770.5 2059.19 769.73 2063.24 769.31C2074.99 768.1 2089.71 773.55 2094.17 780.77L2096.4 784.38L2097.65 781.44C2099.5 777.12 2099.26 770.96 2097.1 766.92C2093.49 760.19 2093.96 753.84 2098.4 749.4C2101.36 746.44 2102.45 746 2106.81 746C2111.14 746 2112.16 746.4 2114.33 748.97C2118.54 753.98 2119.5 758.4 2117.5 763.63C2115.86 767.94 2115.87 770.55 2117.56 778.76C2118.49 783.28 2119.7 783.66 2123.03 780.47C2127.88 775.82 2128.29 772.96 2124.84 767.87C2120.06 760.83 2119.75 759.41 2121.98 755.03C2125.62 747.91 2133.15 744.48 2138.77 747.38C2146.07 751.16 2147.69 757.52 2144 768C2142.24 773 2141.28 782 2142.5 782C2142.78 782 2143.9 781.1 2145 780C2146.1 778.9 2147.72 778 2148.61 778C2149.49 778 2151.54 776.88 2153.17 775.51C2157.18 772.13 2166.03 769.7 2174.5 769.65C2185.63 769.57 2187.52 771.59 2187.46 783.5C2187.39 796.31 2181.98 805.21 2170.21 811.89C2169.29 812.41 2168.85 816.19 2168.65 825.06C2168.4 836.94 2168.22 837.88 2164.67 846C2162.63 850.67 2159.46 856.98 2157.64 860C2155.5 863.56 2153.72 868.5 2152.59 874C2150.61 883.62 2148.02 888.7 2142.12 894.54L2138.04 898.57L2136.05 914.54C2132.94 939.42 2131.91 959 2133.09 970.44C2133.78 977.19 2133.78 981.83 2133.09 984.94C2130.37 997.14 2127.76 1025.7 2128.38 1036.67C2128.83 1044.82 2128.47 1052.38 2127.04 1064.67C2125.65 1076.55 2125.05 1088.4 2125 1105C2124.92 1134.59 2125.76 1159.75 2126.93 1163C2127.43 1164.38 2128.07 1173.38 2128.36 1183.02C2128.64 1192.66 2129.39 1201.88 2130.01 1203.52C2130.64 1205.16 2131.83 1211.45 2132.66 1217.5C2133.49 1223.55 2134.51 1230.75 2134.93 1233.5C2135.36 1236.25 2136.46 1243.9 2137.39 1250.5C2138.32 1257.1 2139.51 1265 2140.04 1268.06C2141.81 1278.32 2141.38 1281.5 2137.82 1284.5C2134.78 1287.05 2134.19 1287.16 2125.39 1286.84C2111.96 1286.35 2110.41 1284.39 2108.47 1265.5C2107.87 1259.68 2104.91 1242.15 2102.98 1233C2102.46 1230.53 2101.58 1224.45 2101.02 1219.5C2099.71 1207.91 2096.71 1192 2095.84 1192C2095.46 1192 2094.61 1193.69 2093.94 1195.75C2093.26 1197.81 2092.1 1200.39 2091.36 1201.47C2090.61 1202.56 2090 1205.38 2090 1207.75C2090 1210.12 2089.29 1213.74 2088.42 1215.78C2085.03 1223.74 2082.87 1243.32 2083.19 1263.04C2083.46 1279.07 2083.27 1281.93 2081.82 1284.15C2079.56 1287.6 2074.26 1288.75 2065.04 1287.79Z" fill="black"/>
</svg>
