<svg width="2240" height="1344" viewBox="0 0 2240 1344" fill="none" xmlns="http://www.w3.org/2000/svg">
<path fill-rule="evenodd" clip-rule="evenodd" d="M190.5 825.18C188.25 824.67 187 823.44 185.5 820.29C184.4 817.97 183.22 816.06 182.87 816.04C182.53 816.02 181.68 817.37 180.98 819.04C179.05 823.7 176.41 825 168.86 825C165.18 825 161.46 824.73 160.61 824.4C158.18 823.47 157.78 818.56 158.84 802.95C159.78 789.16 159.65 786.17 157.16 764C156.27 756.11 153.85 750 151.62 750C148.31 750 143.63 754.61 141.98 759.51C141.05 762.27 139.31 766.43 138.12 768.76C136.16 772.61 135.62 773 132.19 773C128.65 773 128.26 772.69 125.78 767.75C124.32 764.86 122.25 760.48 121.18 758C120.11 755.52 116.59 750.8 113.36 747.5C100.64 734.54 90.5799 715.54 89.0999 701.74C88.4899 696.05 87.9199 694.44 85.9299 692.91C84.5899 691.88 82.9999 691.03 82.3899 691.02C81.7699 691.01 79.2499 688.84 76.7899 686.2C67.0199 675.76 70.6699 666 84.3399 666C91.0299 666 94.9599 664.94 96.0899 662.83C97.0799 660.99 95.2799 656.69 89.9499 648.18C88.6099 646.05 88.6999 645.71 90.9999 643.82C93.0399 642.15 94.4399 641.87 98.6199 642.3C105.83 643.04 111.39 646.17 119.64 654.12C123.57 657.9 127.44 661 128.24 661C132.09 661 137.11 658.1 143.5 652.2C150.86 645.4 155.69 642.75 162.78 641.64C167.35 640.92 170.38 641.94 171.38 644.54C171.91 645.94 167.62 655.13 164.72 658.78C164.03 659.65 164.06 660.85 164.83 662.53C165.91 664.89 166.35 665 175.03 665C184.65 665 189.05 666.37 190.97 669.94C194.03 675.67 188.8 684.23 178.35 690.56C173.46 693.52 172.38 696.57 174.45 701.53C177.19 708.09 189.78 711.67 213.5 712.62C252.1 714.16 264.44 715.13 270.09 717.03C279.25 720.12 283.47 719.71 288.38 715.28C290.65 713.24 294.25 709.2 296.4 706.31C301.14 699.91 305.33 698.08 309.85 700.42C316.87 704.05 318.92 711.33 315.04 718.91C312.42 724.06 308.31 727.33 299.05 731.66C294.79 733.65 290.83 736.04 290.25 736.97C289.51 738.16 289.51 746.68 290.24 765.58C291.13 788.64 291.05 794.4 289.68 805.76C287.81 821.25 286.68 823.49 280.25 824.47C274.5 825.35 267.5 824.18 264.54 821.85C263.12 820.74 261.71 818.18 261.16 815.72C260.23 811.59 260.21 811.57 260.11 814.85C259.88 821.95 256.1 825.02 247.62 824.99C239.01 824.95 237.15 821.86 239.07 810.8C241 799.6 240.89 784.48 238.86 782.44C236.96 780.53 226.23 779.36 220.52 780.43C217.31 781.03 216.55 781.77 214.44 786.31C213.11 789.16 212.01 793.3 212.01 795.5C211.99 800.28 208.38 819.41 207.02 821.97C206.49 822.95 205.37 824.03 204.54 824.35C201.83 825.39 193.58 825.87 190.5 825.18Z" fill="black"/>
</svg>
