<svg width="2240" height="1344" viewBox="0 0 2240 1344" fill="none" xmlns="http://www.w3.org/2000/svg">
<path fill-rule="evenodd" clip-rule="evenodd" d="M379 992.38C360.99 990.18 343.04 987.77 341 987.27C331.06 984.85 321.36 977.5 317.91 969.77C315.94 965.36 315.57 962.96 315.65 955C315.79 941.78 319.18 930.98 326.5 920.4C329.51 916.06 333.34 910.02 335.02 907C336.7 903.98 339.21 899.94 340.59 898.03C343.26 894.33 343.2 891.01 340.41 887.91C337.43 884.6 328.45 881.03 320.5 880C303.86 877.83 299.36 876.82 294.53 874.2C290.55 872.04 289.44 870.84 288.9 868.2C287.99 863.72 290.06 862.5 302.01 860.46C315.95 858.08 315.93 858.09 319.02 847.32C323.34 832.25 330.2 825.75 343.21 824.42C352.52 823.47 358.79 825.58 368.83 833.06C383.68 844.11 387.71 853.05 385.97 871.1C384.89 882.42 382.92 889.38 379.33 894.6C370.87 906.93 370.87 906.92 371.19 910.71C371.6 915.65 374.31 916.97 384.06 916.99C388.22 916.99 398.09 917.9 406 919C413.91 920.1 424.58 921 429.71 921C438.1 921 439.44 921.26 442.99 923.61C449.23 927.74 452.5 932.7 452.5 938.03C452.5 940.53 451.76 944.35 450.86 946.53C449.96 948.71 448.46 953.97 447.54 958.2C444.53 971.96 439.42 978.7 427.38 984.82C417.9 989.63 390.96 993.84 379 992.38Z" fill="black"/>
</svg>
