<svg width="2240" height="1344" viewBox="0 0 2240 1344" fill="none" xmlns="http://www.w3.org/2000/svg">
<path fill-rule="evenodd" clip-rule="evenodd" d="M554 1270.45C551.52 1269.67 547.17 1269.02 544.32 1269.02C536.92 1268.99 534.01 1267.71 534.75 1264.8C535.07 1263.54 536.17 1261.91 537.18 1261.18C538.2 1260.46 539.87 1258.21 540.89 1256.18C543.34 1251.36 542.23 1248.39 537.27 1246.42C523.67 1241.05 517.61 1236.08 512.62 1226.24C511.22 1223.48 508.22 1219.64 505.95 1217.69C503.69 1215.75 500.46 1212.3 498.79 1210.03C496.2 1206.5 495.82 1205.25 496.25 1201.51C496.84 1196.25 500.08 1191.83 505.35 1189.13C508.81 1187.35 509.63 1187.28 513.56 1188.47C517.3 1189.59 518.11 1189.57 519.14 1188.33C521.63 1185.34 526.03 1184.08 539.45 1182.52C555.13 1180.71 559.27 1179.34 561.3 1175.33C562.69 1172.58 563.96 1160.59 564.56 1144.66C564.77 1138.93 565.32 1136.31 566.58 1134.91C570.48 1130.6 586.6 1129.31 594 1132.72C602.27 1136.53 606.71 1142.5 605.46 1148.17C604.97 1150.42 605.41 1151.55 607.67 1153.76C609.23 1155.28 611.57 1157.21 612.89 1158.06C615.06 1159.45 615.15 1159.8 613.89 1161.88C613.12 1163.14 610.91 1164.99 608.96 1166C606.42 1167.31 604.57 1169.5 602.46 1173.66C598.78 1180.92 598.65 1187.06 601.85 1202C604.21 1212.98 604.14 1215.39 601.19 1225C599.88 1229.27 598.15 1231.85 593.48 1236.5C590.17 1239.8 585.42 1243.77 582.92 1245.33C578.24 1248.25 575.53 1251.44 576.47 1252.95C576.76 1253.42 579.47 1255.2 582.48 1256.9C588.45 1260.27 590.08 1263.33 588.15 1267.57C587.26 1269.53 586.31 1270 583.27 1269.98C581.2 1269.96 577.7 1269.53 575.5 1269.02C572.25 1268.26 570.74 1268.45 567.43 1270.04C562.7 1272.32 560.18 1272.4 554 1270.45Z" fill="black"/>
</svg>
