<svg width="2240" height="1344" viewBox="0 0 2240 1344" fill="none" xmlns="http://www.w3.org/2000/svg">
<path fill-rule="evenodd" clip-rule="evenodd" d="M2103.52 544.44C2097.11 541.28 2095.8 541 2087.52 541.02C2076.92 541.05 2071.73 542.09 2067.88 544.93C2066.21 546.17 2063.55 547 2061.28 547C2056.67 547 2043.15 542.34 2036.59 538.5C2033.22 536.52 2030.42 535.69 2027.15 535.68C2024.59 535.67 2001.91 535.76 1976.75 535.88C1951.59 536 1929.31 535.78 1927.25 535.41C1920.9 534.26 1918.17 532.34 1917.08 528.24C1915.71 523.07 1916.69 495.39 1918.58 486.28C1920.31 477.9 1919.89 476.71 1914.67 475.16C1912.93 474.64 1908.86 473.44 1905.64 472.48C1902.42 471.53 1898.23 469.38 1896.33 467.72C1893.19 464.96 1893.02 464.55 1894.46 463.11C1895.53 462.05 1898.88 461.31 1904.77 460.85C1916.65 459.93 1922.49 457.91 1930.6 451.93C1934.38 449.14 1937.71 446.47 1938 445.99C1938.79 444.72 1953.95 437.12 1958 435.97C1961.46 434.98 1971.73 432.83 1979.5 431.47C1981.7 431.08 1992.78 430.47 2004.12 430.11C2017.27 429.69 2025.25 429.04 2026.13 428.31C2026.89 427.67 2028.11 425.15 2028.84 422.69C2032.28 411.04 2045 407.58 2053.7 415.94C2055.85 418 2058.93 419.95 2060.55 420.28C2062.17 420.6 2068 420.15 2073.5 419.28C2082.03 417.93 2085.16 417.88 2094.81 418.92C2101.03 419.6 2107.41 420.6 2108.99 421.15C2112.11 422.23 2115.09 421.19 2118.22 417.94C2119.17 416.95 2121.46 414.99 2123.32 413.57C2131.46 407.36 2143.25 412.97 2144.69 423.75C2145.23 427.78 2142.91 435 2141.08 435C2140.51 435 2139.39 436.28 2138.58 437.85C2137.29 440.35 2137.28 441.38 2138.54 446.1C2140.42 453.18 2140.38 464.08 2138.44 473.18C2135.71 485.96 2136.03 493.27 2139.75 503.07C2143.95 514.14 2144.24 523.8 2140.62 531.58C2137.61 538.04 2134.89 540.13 2124.72 543.79C2112.14 548.33 2111.46 548.35 2103.52 544.44Z" fill="black"/>
</svg>
