<svg width="2240" height="1344" viewBox="0 0 2240 1344" fill="none" xmlns="http://www.w3.org/2000/svg">
<path fill-rule="evenodd" clip-rule="evenodd" d="M982.02 347.78C977.57 345.42 977.03 342.79 977 323.5C976.96 303.84 975.54 292.91 972.17 286.32C969.37 280.85 968.56 280.47 966.16 283.52C964.74 285.33 963.98 288.29 963.53 293.78C963.18 298.03 962.45 305.1 961.91 309.5C961.36 313.9 960.31 322.68 959.57 329C958.04 342.08 957.76 343.05 954.86 344.86C951.7 346.83 938.47 347.59 935.45 345.97C931.87 344.06 931.27 340.09 931.07 317C930.89 295.25 929.62 279.45 927.89 277.37C925.37 274.33 919.48 273.59 898.46 273.65C876 273.71 873.65 274.15 871.97 278.57C870.09 283.52 867.01 308.97 866.35 325C865.68 341.26 865.63 341.52 862.91 344.24C860.33 346.82 859.6 347 851.6 347C839.33 347 839.71 347.88 838.83 317.57C837.95 287.35 837.02 280.3 833.49 277.25C828.4 272.85 827.13 274.13 824.21 286.5C822.55 293.5 821.99 299.73 821.67 314.5C821.23 334.7 820.32 339.77 816.46 343.63C814.44 345.65 813.16 345.99 807.8 345.9C804.33 345.85 800.38 345.49 799 345.11C794.33 343.81 793.8 340.8 792.91 310.1C792.46 294.37 791.58 276.77 790.97 271C789.16 253.8 782.91 225.23 780.64 223.77C778.76 222.55 773.52 222.9 768.88 224.56C762.92 226.69 737.33 226.72 727.24 224.62C714.87 222.04 705.16 214.64 702.54 205.81C700.48 198.88 700.6 192.49 703.07 178.35C706.85 156.66 707.9 147.43 707.51 139.43C706.51 118.78 704.96 97.94 704.03 92.5C702.89 85.8 702.68 76.99 703.61 74.58C705.03 70.88 714.27 73.18 724.08 79.67C726.64 81.37 729.01 82.04 732.1 81.96C734.52 81.9 743.27 81.88 751.55 81.92L766.59 81.98L774.39 77.99C779.52 75.37 783.53 74 786.06 74C791.85 74 792.41 75.8 791.62 91.57C790.87 106.62 790.58 105.88 800.12 113.19C809.97 120.75 816.3 125.99 824 132.96C828.12 136.7 834.65 142.57 838.5 146.01C842.35 149.44 848.62 155.67 852.43 159.84C860.65 168.85 863.65 171.46 867 172.52C868.38 172.96 881.58 173.23 896.33 173.13C943.81 172.79 973.9 177.04 988.09 186.08C993.37 189.44 995.46 189.61 1004.17 187.37C1007.65 186.48 1014.6 185.7 1019.6 185.64C1028.08 185.55 1029.14 185.77 1035.08 188.88C1049.76 196.58 1056.47 208.39 1060.01 232.79C1063.25 255.19 1062.43 263.71 1056.63 267.51C1054.98 268.59 1050.2 269.52 1042.94 270.18C1033.25 271.06 1031.21 270.97 1027.35 269.5C1020.26 266.79 1019.62 265.04 1019.78 248.8C1019.85 241.1 1020.44 233.2 1021.09 231.24C1022.49 226.99 1021.72 216.66 1019.63 211.66C1017.83 207.34 1015.62 206.14 1010.65 206.76C1007.12 207.2 1006.85 207.46 1007.32 209.87C1010.12 224.31 1011.02 228.04 1012.5 231.48C1014.08 235.13 1014.09 235.88 1012.69 240.48C1011.85 243.24 1010.66 251.8 1010.06 259.5C1009.45 267.2 1008.27 282.5 1007.42 293.5C1006.57 304.5 1005.46 318.82 1004.95 325.32C1003.98 337.94 1002.86 343.44 1000.68 346.42C998.91 348.84 985.81 349.8 982.02 347.78Z" fill="black"/>
</svg>
