<svg width="2240" height="1344" viewBox="0 0 2240 1344" fill="none" xmlns="http://www.w3.org/2000/svg">
<path fill-rule="evenodd" clip-rule="evenodd" d="M1247.5 1281.98C1245.3 1281.5 1235.56 1281.37 1225.86 1281.7L1208.21 1282.3L1205.61 1279.7C1202.31 1276.4 1202.27 1272.65 1205.49 1268.43C1208.45 1264.55 1214.31 1262.43 1224.78 1261.46C1229.07 1261.07 1232.67 1260.18 1233.54 1259.31C1234.85 1258.01 1234.78 1257.5 1232.96 1254.95C1231.83 1253.36 1229.55 1251.26 1227.89 1250.28C1223.45 1247.66 1216.96 1238.51 1215.38 1232.63C1214.62 1229.81 1213.7 1223.58 1213.35 1218.79L1212.71 1210.07L1206.86 1205.81C1202.31 1202.5 1200.87 1200.81 1200.38 1198.21C1199.33 1192.62 1200.59 1187.42 1204.14 1182.69C1205.99 1180.23 1212.15 1173.93 1212.71 1173C1214 1168.5 1212 1166 1216 1156.5C1201.5 1154.5 1193.88 1129.44 1197.5 1128.5C1209 1125.5 1221.5 1133.5 1226.5 1141.5C1227 1138.5 1226.79 1127.69 1224.5 1126C1216.5 1124 1210.39 1116.59 1207.35 1110.7C1206.45 1108.94 1204.17 1105.7 1202.29 1103.5C1197.72 1098.15 1193.61 1089.28 1191.07 1079.29C1189.15 1071.76 1189.08 1070.26 1190.17 1061.35C1191.28 1052.35 1191.23 1051.56 1189.58 1050.57C1182.58 1046.39 1169.53 1033.96 1167.06 1029.11C1162.06 1019.29 1160.57 1007.61 1163.92 1004.57C1168.56 1000.37 1180.58 1002.05 1192.01 1008.5C1201.63 1013.92 1204.5 1016.4 1210.59 1024.49L1216.12 1031.84L1228.31 1032.19C1235.01 1032.38 1241.62 1032.27 1243 1031.95C1244.49 1031.6 1247.89 1028.42 1251.41 1024.07C1258.52 1015.3 1264.08 1011.06 1273.83 1006.96C1281.11 1003.9 1290.73 1002.83 1295.98 1004.49C1298.89 1005.42 1299.55 1011.08 1297.73 1019.5C1295.89 1027.96 1290.99 1035.63 1283.45 1041.83C1280.73 1044.07 1276.82 1047.32 1274.76 1049.05L1271.03 1052.21L1271.63 1063.85C1272.19 1074.72 1272.06 1075.95 1269.67 1082.22C1265.35 1093.56 1264.79 1098.77 1267.03 1106.62C1268.79 1112.75 1271.49 1120.3 1274.33 1127C1274.91 1128.38 1276.45 1130.62 1277.74 1132C1279.04 1133.38 1282.17 1138.1 1284.7 1142.5C1291.46 1154.25 1296.06 1160.85 1299.8 1164.13C1301.62 1165.73 1303.88 1168.73 1304.81 1170.8C1305.74 1172.87 1308.11 1177.02 1310.07 1180.03C1312.04 1183.04 1314.51 1186.9 1315.57 1188.6C1319.12 1194.32 1325.3 1203.45 1329.71 1209.5C1332.12 1212.8 1335.53 1217.83 1337.29 1220.67C1351.67 1243.84 1370.5 1256.82 1399.5 1263.55C1407.75 1265.46 1419 1267.49 1424.5 1268.07C1437.42 1269.42 1440 1270.4 1440 1274C1440 1276.09 1439.33 1277.01 1437.25 1277.79C1431.38 1280 1414.61 1281.34 1393 1281.31C1364.1 1281.28 1352.09 1279.6 1336.43 1273.41C1330.3 1270.98 1324.37 1269 1323.26 1269C1322.15 1269 1320.69 1268.33 1320.01 1267.51C1318.07 1265.18 1317.2 1266.59 1317.71 1271.23C1318.13 1275.11 1317.84 1275.82 1314.53 1279L1310.89 1282.5L1281.2 1282.67C1264.86 1282.77 1249.7 1282.46 1247.5 1281.98Z" fill="black"/>
</svg>
