<svg width="2240" height="1344" viewBox="0 0 2240 1344" fill="none" xmlns="http://www.w3.org/2000/svg">
<path d="M1792.77 591.45C1802.67 588.21 1813.79 588.07 1819.44 591.09C1831.03 597.31 1835.48 604.43 1836.61 618.56C1837.87 634.35 1833.22 642.04 1819.11 647.48C1814.06 649.426 1811.01 651.503 1807.73 655.932L1808.5 655.5L1860 681.5L1821.5 754.5V786.5H1739.5V759.5L1672.5 721.5L1681.5 706.5L1696.5 714V701H1707.5L1709.5 717L1713.5 720H1716L1716.61 718.491C1715.98 716.999 1715.36 715.181 1714.57 712.73C1712.1 705.05 1711.89 703.43 1712.84 699.73C1713.43 697.4 1714.21 693.92 1714.56 692C1715.23 688.339 1720.89 676.41 1724.11 671.86C1725.78 669.5 1725.81 669.09 1724.43 667.95C1723.59 667.24 1721.16 663.7 1719.05 660.08C1714.22 651.81 1713.06 650.8 1704.7 647.46C1693.68 643.06 1689.43 637.34 1688.31 625.36C1687.68 618.67 1689.9 607.25 1693.04 601C1698.71 589.74 1712.73 586.13 1731.33 591.15C1738.51 593.09 1740.05 593.19 1746.9 592.14C1756.68 590.65 1763.17 590.73 1775.39 592.48C1785.08 593.86 1785.42 593.84 1792.77 591.45Z" fill="black"/>
</svg>
