<svg width="2240" height="1344" viewBox="0 0 2240 1344" fill="none" xmlns="http://www.w3.org/2000/svg">
<path fill-rule="evenodd" clip-rule="evenodd" d="M1963 369.48C1958.61 368.47 1954.19 368.2 1949.37 368.62C1944.92 369.02 1940.28 368.79 1937.04 368.01C1932.68 366.96 1931.6 366.23 1930.26 363.42C1928.1 358.9 1929.64 353.87 1934.91 348.22C1937.81 345.11 1939.06 342.77 1939.54 339.55C1939.91 337.13 1939.94 334.71 1939.61 334.17C1939.28 333.64 1935.63 332.45 1931.49 331.53C1924.99 330.08 1923.78 329.47 1922.47 326.94C1918.73 319.71 1911.69 314 1906.52 314C1897.71 314 1893.9 308.1 1895.79 297.37C1897.2 289.4 1895.63 286.8 1886.49 281.97C1880.06 278.57 1879.53 278.05 1879.82 275.39C1879.99 273.8 1882.28 268.41 1884.9 263.42C1890.49 252.78 1890.41 252.05 1882.99 245.08C1880.15 242.42 1878 239.51 1878 238.35C1878 235.43 1882.61 229.45 1890.26 222.44C1898.91 214.52 1899.45 213.23 1897.67 204.79C1895.68 195.3 1896.48 194.69 1911.96 193.9C1927.68 193.1 1930.68 191.67 1933.29 183.73C1934.7 179.41 1935.9 177.59 1938.03 176.48C1939.74 175.6 1941.12 175.39 1941.48 175.96C1941.8 176.49 1944.82 177.92 1948.2 179.15C1951.57 180.38 1956.32 183.12 1958.76 185.23C1961.34 187.46 1963.9 188.88 1964.85 188.61C1965.76 188.36 1968.08 187.83 1970 187.45C1971.92 187.06 1974.8 185.65 1976.38 184.32C1979.8 181.46 1985.15 178.64 1991.16 176.53C1995.27 175.09 1995.59 175.12 1997.16 177.01C1998.08 178.11 1999.14 180.92 1999.53 183.25C1999.92 185.59 2000.64 188.27 2001.13 189.21C2002.39 191.61 2008.23 192.99 2017.2 192.99C2027.51 193 2034.74 194.6 2035.51 197.04C2035.84 198.08 2035.64 200.63 2035.06 202.72C2034.48 204.8 2034.01 207.62 2034.01 209C2034.01 212.48 2038.71 219.21 2045.15 224.95L2050.59 229.79L2063.54 230.92C2086.72 232.95 2101.74 236.51 2119.92 244.29C2129.22 248.27 2129.43 248.31 2136.4 247.35C2148.99 245.61 2159 248.68 2164.99 256.13C2167.79 259.62 2168.35 261.23 2168.74 266.87C2168.99 270.52 2168.77 276.58 2168.25 280.35C2167.02 289.33 2167.46 291.08 2171.65 293.82C2173.57 295.08 2175.84 297.76 2176.68 299.77C2178.81 304.88 2178.09 315.07 2175.34 318.74C2173.48 321.22 2172.72 321.48 2167.88 321.29C2164.92 321.17 2159.91 320.79 2156.75 320.44C2153.59 320.1 2151 320.07 2151 320.39C2151 323.14 2142.64 360.34 2141.38 363.19C2139.21 368.1 2134.18 370.1 2122.36 370.75C2114.78 371.17 2111.96 370.88 2105.86 369.03C2101.81 367.81 2097.94 366.34 2097.25 365.78C2096.39 365.07 2095.57 365.11 2094.6 365.91C2093.84 366.55 2089.1 367.56 2084.07 368.15C2071.85 369.6 2061.43 368.17 2058.37 364.64C2055.91 361.78 2056.19 357.67 2059.08 354.49C2061.61 351.7 2064.78 344.24 2065.59 339.18C2066.54 333.23 2064.65 331.46 2055.7 329.95C2047.06 328.49 2018.52 329.1 2015.34 330.81C2011.22 333.03 2007.42 341.4 2005.51 352.5C2005.13 354.7 2003.67 358.84 2002.27 361.7C2000.23 365.87 1998.92 367.23 1995.61 368.59C1989.9 370.96 1971.65 371.45 1963 369.48ZM2105 338.5C2105 337.19 2104.6 335.87 2104.11 335.57C2103.02 334.9 2101.94 338.67 2102.67 340.59C2103.46 342.64 2105 341.26 2105 338.5ZM2153.5 275.62C2155.19 274.39 2155.26 273.82 2154.19 270.24C2152.18 263.53 2148 261.96 2148 267.91C2148 271.15 2149.87 277 2150.91 277C2151.3 277 2152.47 276.38 2153.5 275.62Z" fill="black"/>
</svg>
