<svg width="2240" height="1344" viewBox="0 0 2240 1344" fill="none" xmlns="http://www.w3.org/2000/svg">
<path fill-rule="evenodd" clip-rule="evenodd" d="M1716.92 316C1710.29 314.86 1704.44 311.54 1701.53 307.26C1699.46 304.21 1699 302.36 1699.01 297.02C1699.02 291.06 1699.33 290.11 1702.58 286C1707.11 280.29 1714.01 276.99 1719.54 277.89C1722.63 278.39 1724.03 279.38 1726.41 282.77C1729.24 286.8 1729.34 287.28 1728.36 292.06C1727.44 296.56 1727.53 297.21 1729.17 298.09C1730.69 298.9 1731.2 298.61 1732.01 296.48C1732.55 295.04 1733 292.44 1733 290.68C1733 288.93 1733.95 285.02 1735.11 282C1736.84 277.48 1737.13 275.05 1736.72 268.33C1735.95 255.55 1728.89 242 1722.99 242C1721.86 242 1720.01 244.36 1717.7 248.75C1713.44 256.85 1709.72 259.54 1704.18 258.52C1696.96 257.21 1694.96 254.03 1693.75 242C1693.51 239.63 1693.08 239.46 1685.55 238.78C1681.17 238.38 1676.9 237.76 1676.05 237.39C1675.2 237.03 1665.95 236.41 1655.5 236.03C1641.85 235.54 1635.85 234.94 1634.18 233.92C1631.81 232.47 1629 227.12 1629 224.07C1629 221.86 1634.64 216.66 1638.83 215C1643.49 213.17 1644.67 210.84 1646.39 200.1C1647.43 193.57 1649 188.42 1651.54 183.23C1654.76 176.61 1655.01 175.58 1653.69 174.26C1652.87 173.44 1647.09 171.43 1640.85 169.8C1628.24 166.49 1620.88 162.61 1614.35 155.81C1605.45 146.56 1601.4 133.24 1602.46 116.74C1602.9 110.04 1602.58 103.24 1601.47 95.1098C1599.17 78.2298 1601.29 71.8498 1609.82 69.9298C1613.32 69.1398 1614.71 69.3198 1617.94 70.9698C1621.16 72.6098 1622.22 73.9598 1624.01 78.7298C1625.21 81.8998 1626.4 85.8498 1626.67 87.4998C1627.3 91.3098 1623.82 99.5698 1620.49 102.19C1618.72 103.58 1618 105.12 1618 107.51C1618 121.77 1627.76 138.38 1639.14 143.48C1644.67 145.96 1645.28 146.05 1647.46 144.62C1649.51 143.28 1649.7 142.63 1649 139.51C1647.91 134.66 1646.88 133.63 1639.35 129.85C1635.77 128.05 1632.38 125.66 1631.81 124.54C1631.23 123.42 1629.83 121.75 1628.68 120.84C1626.98 119.49 1626.64 118.27 1626.88 114.34C1627.21 108.76 1629.81 103.98 1634.22 100.84C1636.56 99.1798 1639.17 98.5398 1645.1 98.1998L1652.9 97.7498L1660.38 89.5398C1666.1 83.2498 1668.98 80.9098 1672.68 79.5298C1675.33 78.5498 1678.94 76.3898 1680.69 74.7298C1683.51 72.0798 1684.4 71.7798 1688.35 72.2298C1690.81 72.5098 1694.12 73.6598 1695.72 74.7998C1697.31 75.9298 1700.61 77.6498 1703.06 78.6098C1709.52 81.1498 1713.66 84.6098 1718.13 91.1898L1722.07 96.9998H1729.07C1737.79 96.9998 1742.05 98.7298 1744.97 103.45C1749.63 110.99 1745.68 123.07 1736.74 128.62C1734.41 130.06 1731.44 132.2 1730.15 133.37C1727.6 135.68 1724 142.08 1724 144.3C1724 145.06 1727.56 152.09 1731.92 159.91C1736.27 167.74 1740.44 176.48 1741.17 179.32C1743.91 189.99 1741.97 213.98 1737.68 222.48C1735.55 226.71 1735.16 230.89 1736.78 232.22C1737.64 232.92 1739.63 236.43 1741.21 240C1742.79 243.57 1744.93 248.07 1745.96 250C1748.29 254.35 1751.01 268.34 1750.98 275.86C1750.95 284.04 1749.24 294.63 1747.35 298.31C1740.27 312.12 1729.79 318.21 1716.92 316Z" fill="black"/>
</svg>
