<svg width="2240" height="1344" viewBox="0 0 2240 1344" fill="none" xmlns="http://www.w3.org/2000/svg">
<path fill-rule="evenodd" clip-rule="evenodd" d="M639.66 338.79C638.87 337.53 637.54 335.15 636.7 333.5C635.18 330.5 635.18 330.5 626.16 330.5C618.56 330.5 616.7 330.17 614.32 328.4C610.44 325.5 607.81 320.67 606.86 314.71C606.19 310.46 605.31 308.97 601.19 305.09C598.5 302.57 594.8 299.6 592.96 298.5C588.93 296.09 587.96 292.96 589.41 287.09C591.39 279.08 599.77 275.78 607.46 279.98C615.39 284.31 617.96 291.28 614.01 297.74C612.45 300.31 612.17 301.98 612.68 305.74C614.05 315.82 617.47 320 624.33 320C627.93 320 628.17 319.82 627.62 317.61C627.05 315.35 629.86 305.24 633.33 297C634.14 295.07 635.1 290.8 635.47 287.5C635.83 284.2 636.87 278.5 637.77 274.83L639.4 268.16L635.42 263.83C629.7 257.61 628.44 254.07 629.98 248.56C631.61 242.74 634.79 239.88 640.19 239.34C645.98 238.77 648.6 240.37 653.44 247.46C656.82 252.42 658.14 253.55 661.31 254.2C665.66 255.11 670.48 253.2 671.43 250.21C671.75 249.21 673.76 246.68 675.91 244.59C683.04 237.63 692.21 238.83 695.72 247.18C698.27 253.25 697.45 256.43 691.73 262.57L686.46 268.23L687.77 278.36C688.49 283.94 690.26 292.52 691.7 297.44C695.29 309.67 695.3 316.95 691.75 323.83C690.24 326.76 688.97 330.36 688.93 331.83C688.81 336.3 687.5 338.32 683.92 339.55C680.98 340.56 679.94 340.44 676.5 338.7C674.15 337.51 669.21 336.37 664.5 335.93C657.24 335.26 656.13 335.4 652.5 337.46C650.3 338.71 646.83 340.03 644.8 340.4C641.63 340.98 640.89 340.74 639.66 338.79Z" fill="black"/>
</svg>
