<svg width="2240" height="1344" viewBox="0 0 2240 1344" fill="none" xmlns="http://www.w3.org/2000/svg">
<path fill-rule="evenodd" clip-rule="evenodd" d="M1218.81 453.92C1215.69 453.46 1210.32 452.36 1206.89 451.47C1203.46 450.58 1197.47 449.6 1193.57 449.29C1186.14 448.69 1180.77 446.62 1177.62 443.13C1175.27 440.53 1175.87 434.02 1178.83 430.02L1180.81 427.34L1177.35 420.38C1172.96 411.53 1172.03 405.5 1173.69 396.52C1175.83 384.97 1175.63 377.29 1173.11 374.16C1164.47 363.46 1165.11 349.53 1174.64 340.94C1182.45 333.9 1192.47 333.66 1204.74 340.22C1210.23 343.15 1211.17 343.32 1224.5 343.72C1239.54 344.17 1238.05 344.52 1246.58 338.5C1248.83 336.91 1250.97 336.51 1256.96 336.55C1266.08 336.61 1269.76 338.19 1276.75 345.04C1281.42 349.61 1282.2 350 1286.68 350C1307.94 350 1332.46 357.72 1348.7 369.51C1355.08 374.15 1356.75 374.87 1363.5 375.87C1376.27 377.77 1379.58 380.61 1378.78 388.96C1378.28 394.09 1375.17 399.15 1371.46 400.84C1368.51 402.18 1367.01 407.34 1367.01 416.15C1367 422.01 1366.48 423.84 1362.54 431.7C1357.55 441.67 1353.76 445.13 1343.78 448.83C1336.06 451.69 1321.42 453.37 1310.7 452.63C1300.99 451.95 1299.3 451.32 1293.61 446.23C1289.92 442.93 1289.46 442.79 1284.39 443.38C1281.46 443.73 1276.01 445.17 1272.28 446.59C1268.55 448.01 1263.7 449.86 1261.5 450.7C1252.82 454.02 1230.82 455.68 1218.81 453.92Z" fill="black"/>
</svg>
