<svg width="2240" height="1344" viewBox="0 0 2240 1344" fill="none" xmlns="http://www.w3.org/2000/svg">
<path fill-rule="evenodd" clip-rule="evenodd" d="M279.75 572.92C276.87 571.24 275.2 566.85 274.45 558.96C273.37 547.57 271.2 545.06 264.11 546.97C259.76 548.14 258.53 550.26 257.41 558.5C256.42 565.87 254.1 571.01 251.3 572.08C249.96 572.59 245.76 573 241.96 573C233.53 573 232.64 572.03 230.94 561C229.56 552.08 227.76 548.19 224.73 547.57C223.5 547.32 214.18 546.85 204 546.53C193.82 546.21 181.42 545.68 176.44 545.35C165.63 544.64 164.6 545.27 163.67 553.19C162.75 560.95 160.18 567.71 157.27 570C155.31 571.55 153.21 572 148.04 572C140.11 572 137.64 570.12 136.52 563.26C136.14 560.92 135.42 558.76 134.91 558.45C134.41 558.14 134 556.86 134 555.62C134 553.27 129.49 548.18 128.38 549.28C128.04 549.63 127.37 553.77 126.89 558.5C125.5 572.24 124.28 573.34 111.57 572.36C101.08 571.56 100.62 571.03 98.56 557.31C93.21 521.78 92.74 513.35 94.83 491.15C95.74 481.41 95.78 477.45 94.98 476.48C94.37 475.75 91.32 474.37 88.19 473.41C80.19 470.97 75.53 468.49 73.09 465.39C70.37 461.93 70.43 459.3 73.25 458.46C74.49 458.09 78.7 456.19 82.61 454.23L89.72 450.67L92.86 452.9C94.59 454.13 96 455.73 96 456.45C96 457.97 99.45 460.4 102.8 461.26C104.64 461.72 105.65 461.09 107.8 458.13C111.03 453.68 120.14 445.31 125 442.31C136.1 435.47 152.91 431.09 172 430.06C180.53 429.6 188.27 428.91 189.2 428.52C190.9 427.82 192.23 424.62 193.56 418C195.03 410.74 197.04 408.06 202.22 406.53C211.52 403.77 229.67 407.73 240.99 414.99L245.52 417.9L265.65 418.3C285.06 418.67 285.93 418.61 290.14 416.4C304.5 408.89 307.01 407.99 316.73 406.89C327.54 405.66 333.01 406.5 336.69 409.93C342.43 415.28 341.88 444.65 335.85 455.04C333.36 459.33 333.24 460.26 332.77 479L332.29 498.5L328.65 506.14C325.04 513.71 322.61 516.55 309.98 527.9L304.46 532.86L302.66 547.18C299.91 569.15 299.33 571.53 296.41 572.86C293.32 574.27 282.13 574.31 279.75 572.92Z" fill="black"/>
</svg>
