<svg width="2240" height="1344" viewBox="0 0 2240 1344" fill="none" xmlns="http://www.w3.org/2000/svg">
<path fill-rule="evenodd" clip-rule="evenodd" d="M710 1091.36C708.62 1091.1 703.36 1089.56 698.3 1087.94L689.1 1085L671.8 1086.03C662.29 1086.6 651.35 1087.52 647.5 1088.08C634.12 1090.01 625.09 1090.28 612.33 1089.1C594.24 1087.43 590.1 1086.38 588.87 1083.17C588.33 1081.74 587.66 1072.26 587.37 1062.11L586.85 1043.64L582.93 1039.18C579.53 1035.32 579 1034.07 579 1029.95C579 1025.9 579.44 1024.8 581.93 1022.71C586.3 1019.03 592.7 1018.39 598.23 1021.08L602.7 1023.25L613.1 1019.69C624.41 1015.83 631.3 1014.4 643.24 1013.45C653.05 1012.67 654.64 1011.41 655.88 1003.49C656.89 996.98 660.09 988.99 664.44 982.09L667.19 977.73L664.59 972.41C660.5 964.07 658.24 952.15 658.14 938.5C658.05 925.37 658.9 920.66 662.13 916.56C666.48 911.03 674.79 915.26 686.29 928.84C691.37 934.84 695.06 941.96 697.57 950.59C699.55 957.42 702.66 961.53 704.6 959.92C705.37 959.28 706.01 958.25 706.03 957.63C706.05 957.01 707.17 954.25 708.52 951.5C709.87 948.75 710.99 946.19 710.99 945.8C711 945.42 712.41 942.94 714.13 940.3C715.85 937.66 718.66 933.34 720.38 930.69C722.23 927.85 725.92 924.26 729.43 921.9C734.54 918.46 736.01 917.95 739.93 918.2C744.15 918.48 744.65 918.81 746.5 922.5C748.17 925.83 748.5 928.5 748.5 938.5C748.5 948.97 748.14 951.58 745.69 959C744.15 963.67 741.79 969.58 740.45 972.12C737.2 978.3 737.21 982.25 740.51 989.99C744.23 998.73 745.97 1016.9 744.04 1026.81C741.99 1037.27 739.03 1042.16 731.51 1047.53C727.93 1050.08 725 1052.59 725 1053.1C725 1055.9 732.3 1061.38 741.5 1065.5C747 1067.96 752.06 1070.74 752.75 1071.68C754.54 1074.12 754.25 1080.14 752.23 1082.59C749.87 1085.45 745.81 1086.74 737.33 1087.35C733.38 1087.64 728.69 1088.62 726.91 1089.55C723.61 1091.25 714.51 1092.23 710 1091.36Z" fill="black"/>
</svg>
