<svg width="2240" height="1344" viewBox="0 0 2240 1344" fill="none" xmlns="http://www.w3.org/2000/svg">
<path fill-rule="evenodd" clip-rule="evenodd" d="M798.5 1269.37C795.18 1268.4 791.22 1268.1 786.71 1268.47C779.48 1269.06 776.73 1268.24 774.99 1264.98C773.52 1262.23 775.04 1259.76 780.51 1255.99C787.1 1251.46 786.79 1248.69 778.89 1241.82C767.99 1232.35 763.05 1222.19 763.02 1209.18C763 1202.2 761.95 1200.51 755.71 1197.37C752.85 1195.92 750.15 1194.23 749.73 1193.62C748.5 1191.84 749.91 1186.12 753.16 1179.69C755.93 1174.2 756.15 1172.98 756.12 1163.12C756.1 1157.26 756.49 1151.82 756.98 1151.03C757.48 1150.23 759.82 1149.11 762.19 1148.54C765.98 1147.63 766.46 1147.2 766.2 1145C765.16 1136.44 767.03 1133.7 776.55 1129.83C786.01 1125.99 794.79 1125.91 801.38 1129.59C807.17 1132.82 808.46 1136.99 806.04 1144.68C804.85 1148.47 805.02 1150.33 807.89 1164.42C811.67 1182.99 811.77 1183.31 813.88 1182.44C814.77 1182.08 816.4 1181.56 817.5 1181.29C818.6 1181.03 821.55 1180.17 824.05 1179.39C828.2 1178.1 828.93 1178.14 832.49 1179.87C838.35 1182.72 841.42 1181.28 843.58 1174.67C846.31 1166.33 848.53 1162.74 853.55 1158.58C859.32 1153.81 863.83 1152.1 870.85 1152.04C876.08 1152 876.31 1152.12 881.85 1157.88C885.15 1161.32 889.99 1165.01 893.5 1166.77C901.82 1170.95 903.15 1172.71 904.03 1180.74C904.43 1184.46 905.96 1190.32 907.43 1193.76C910.57 1201.16 910.25 1204.86 905.9 1211.27C903.51 1214.81 903.03 1216.53 903.02 1221.8C903.01 1225.46 902.36 1229.34 901.47 1231.06C899.75 1234.39 893.09 1239 889.99 1239C886.39 1239 880.84 1236.11 875.22 1231.31C871.63 1228.24 868.06 1226.2 864.78 1225.35C857.89 1223.57 856.67 1224.12 841.32 1236.07C838.09 1238.59 832.43 1242.07 828.76 1243.81C824.02 1246.04 821.61 1247.86 820.49 1250.02C818.91 1253.08 818.91 1253.09 823.44 1257.79C830.38 1264.99 829.64 1266.41 818.15 1267.98C813.56 1268.61 808.7 1269.54 807.34 1270.06C804.42 1271.17 804.81 1271.2 798.5 1269.37Z" fill="black"/>
</svg>
