<svg width="2240" height="1344" viewBox="0 0 2240 1344" fill="none" xmlns="http://www.w3.org/2000/svg">
<path fill-rule="evenodd" clip-rule="evenodd" d="M875.7 774.03C873.61 773.63 871.44 772.84 870.87 772.27C869.47 770.87 868.05 764.4 868.02 759.25C868 754.99 866.75 753.61 865.61 756.58C865.27 757.45 865 759.99 865 762.21C865 765.53 864.38 766.85 861.58 769.49C858.02 772.85 854.5 774 847.8 774C844.76 774 843.17 773.32 840.92 771.08C837.69 767.85 837.54 766.53 837.98 745.26L838.19 735.02L833.68 728.76C831.19 725.32 825.7 718.72 821.47 714.1C817.23 709.48 813.17 704.27 812.44 702.52C810.35 697.52 809.71 690 810.85 683.84C811.73 679.09 811.57 676.85 809.85 669.84C806.11 654.57 807.05 648.23 814.55 638.04C816.97 634.76 819.22 630.82 819.56 629.29C820.78 623.78 824.34 613.45 825.86 611C828.1 607.41 833.91 602.18 838.14 599.98C840.14 598.93 844.96 597.35 848.85 596.47C852.75 595.58 857.57 593.75 859.56 592.4C871.97 583.98 882.58 581.5 893.86 584.38C900.94 586.2 907.58 586.49 908.48 585.03C909.23 583.82 915.69 582.04 923.22 580.97C929.38 580.1 938.53 581.67 944.12 584.56C945.79 585.42 950.25 586.39 954.04 586.71C960.52 587.25 961.33 587.08 967.72 583.75C981.81 576.41 993.39 576.87 1005.28 585.22C1007.17 586.55 1010.69 587.42 1016.28 587.93C1029.37 589.12 1036.69 593.54 1040.43 602.5C1041.18 604.29 1042.98 606.59 1044.43 607.63C1057.61 616.99 1058.34 618.13 1060.12 632.06C1061.03 639.09 1062.2 643.24 1064.71 648.31C1070.9 660.8 1070.1 672.83 1062.32 684.15C1058.82 689.25 1058.62 689.99 1058.03 700C1057.69 705.77 1056.8 711.62 1056.06 713C1053.53 717.7 1047.94 722.16 1040.22 725.64C1035.97 727.55 1031.6 729.56 1030.5 730.1C1029.4 730.64 1025.97 733.42 1022.88 736.29C1018.09 740.73 1017.09 742.28 1016.13 746.8C1015.51 749.71 1015 754.66 1014.99 757.8C1014.99 765.06 1013.48 770.47 1010.76 773.01C1009.11 774.55 1007.25 775 1002.56 774.99C991.12 774.96 988.28 771.69 986.58 756.64C985.93 750.82 985.08 745.74 984.69 745.36C983.38 744.05 982.66 746.01 982.37 751.75C981.7 764.61 980.91 768.25 978.15 771C973.31 775.84 960.63 775.82 958.34 770.96C957.7 769.61 956.75 764.35 956.22 759.27C954.65 744.22 952 742.37 937.36 746.04C929.43 748.02 927.96 748.11 921.07 747C916.91 746.33 911.81 745.1 909.74 744.28C907.18 743.25 904.55 742.99 901.48 743.45C895.51 744.35 893.8 747.54 893.2 759C892.65 769.51 891.23 772.57 886.25 773.95C882.11 775.1 881.23 775.1 875.7 774.03ZM868 748.94C868 747.81 867.55 747.16 867 747.5C866.45 747.84 866 748.77 866 749.56C866 750.35 866.45 751 867 751C867.55 751 868 750.07 868 748.94Z" fill="black"/>
</svg>
