<svg width="2240" height="1344" viewBox="0 0 2240 1344" fill="none" xmlns="http://www.w3.org/2000/svg">
<path fill-rule="evenodd" clip-rule="evenodd" d="M1939.25 794.75C1938.7 794.06 1937.3 791.31 1936.14 788.64C1934.43 784.73 1933.67 783.92 1932.26 784.51C1926.42 786.95 1925.09 787.24 1922.65 786.63C1918.89 785.68 1916 782.5 1916 779.31C1916 777.84 1917.6 773.54 1919.55 769.77L1923.1 762.9L1920.35 757.2C1917.86 752.06 1917.58 750.32 1917.4 739.5C1917.29 732.9 1917.16 727.04 1917.1 726.49C1917.05 725.93 1915.2 724.36 1913 723C1906.4 718.92 1904.14 710.93 1907.58 703.78C1909.87 699.04 1913.57 696.7 1919.57 696.2C1926.27 695.65 1931.26 697.34 1936.28 701.87L1940.3 705.5L1952.9 705.28L1965.5 705.06L1973.85 700.79C1981.04 697.12 1983.04 696.53 1988.15 696.6C1995.91 696.71 1998.45 698.65 2003.19 708.1C2005.24 712.17 2007.43 716.1 2008.08 716.84C2009.67 718.66 2016 717.48 2018.15 714.97C2020.71 711.96 2021.52 700.31 2019.63 693.79C2018.73 690.72 2017.78 681.99 2017.39 673.43C2016.77 659.62 2016.87 658.07 2018.77 653.78C2023.63 642.8 2037.12 634.21 2051.02 633.26C2071 631.89 2086.12 641.65 2090.94 659.02C2093.41 667.93 2093.51 671.92 2091.44 678.88C2088.59 688.48 2079.19 695.79 2067.5 697.48C2060.44 698.49 2059.41 699.28 2055.96 706.28C2052.31 713.66 2045 721.56 2039.67 723.88L2035.84 725.55L2041.56 734.02C2044.71 738.69 2048.12 743.57 2049.14 744.88C2050.46 746.58 2051 748.94 2051 753.06C2051 762.75 2047.17 764.23 2035.57 759.03C2028.49 755.85 2021.75 753.77 2018.48 753.76C2017.36 753.75 2013.44 755.16 2009.77 756.88C2006.09 758.59 2002.78 760 2002.41 760C2001.29 760 1983.64 770.18 1981.5 772.07C1980.4 773.03 1977.39 774.94 1974.8 776.31C1972.22 777.67 1966.61 781.64 1962.33 785.14C1958.06 788.63 1953.06 792.5 1951.24 793.74C1947.57 796.23 1940.88 796.8 1939.25 794.75Z" fill="black"/>
</svg>
