<svg width="2240" height="1344" viewBox="0 0 2240 1344" fill="none" xmlns="http://www.w3.org/2000/svg">
<path fill-rule="evenodd" clip-rule="evenodd" d="M1592.8 1147.12C1586.05 1145.68 1584.13 1142.76 1580.35 1128.21C1577.36 1116.72 1575.67 1113.21 1572.57 1112.03C1571.28 1111.54 1562.19 1110.85 1552.37 1110.51C1530.59 1109.74 1529.65 1110.03 1529.2 1117.66C1529 1121.12 1529.68 1124.98 1531.31 1129.65C1535.47 1141.57 1532.92 1144 1516.23 1144C1505.01 1144 1499 1142.58 1499 1139.92C1499 1139.36 1497.65 1138.42 1495.99 1137.85C1492.51 1136.63 1492.32 1135.98 1491.6 1122.93C1490.9 1110.18 1490.66 1109.61 1486.8 1111.6C1483.84 1113.13 1483.8 1113.26 1484.49 1118.83C1484.88 1121.95 1485.83 1126.02 1486.6 1127.87C1489.26 1134.27 1487.84 1140.84 1483.34 1142.89C1480.31 1144.27 1462.76 1144.34 1457.9 1142.99C1452.46 1141.48 1450.98 1139.06 1448.33 1127.29C1446.43 1118.86 1445.78 1112.45 1445.34 1098C1444.82 1080.82 1444.96 1078.63 1447.32 1067.35C1448.72 1060.66 1450.76 1053.43 1451.86 1051.27C1453.53 1048 1453.66 1046.95 1452.66 1044.93C1450.21 1040 1439.66 1041.86 1436.63 1047.77C1435.86 1049.27 1433.75 1054.24 1431.95 1058.81C1425.62 1074.85 1416.26 1080.89 1401.87 1078.21C1393.46 1076.65 1387.56 1072.92 1383.6 1066.67C1375.81 1054.38 1375.95 1043.13 1383.93 1039.53C1389.92 1036.83 1393.9 1039.87 1395.97 1048.74C1397.49 1055.22 1401.84 1059.5 1405.91 1058.5C1410.81 1057.3 1412.58 1055.21 1417.87 1044.37C1420.78 1038.39 1423.92 1032.67 1424.83 1031.65C1431.35 1024.39 1446.44 1021.82 1457.5 1026.09C1465.33 1029.11 1471.4 1028.99 1478.78 1025.68C1490.63 1020.36 1513.19 1017.11 1543 1016.43L1561.5 1016.01L1564.25 1012.99C1568.48 1008.34 1568.06 1003.59 1562.84 997.04C1559 992.21 1558.68 991.36 1558.73 985.94C1558.85 973.42 1568.5 964.88 1582.5 964.88C1591.87 964.88 1594.68 966.43 1603.93 976.75L1606.85 980H1618.46C1631.71 980 1635.49 978.72 1640.27 972.61C1645.24 966.24 1656.11 964.94 1666.5 969.47C1672.68 972.16 1678.7 977.57 1680.04 981.63C1682.23 988.25 1679.71 996.99 1673.67 1003.74C1672.33 1005.24 1671.67 1007.39 1671.67 1010.24C1671.67 1013.89 1672.52 1015.64 1677.69 1022.51C1681 1026.91 1684.45 1031.13 1685.35 1031.87C1687.17 1033.38 1686.72 1036.91 1684.21 1040.78C1682.76 1043.02 1682.85 1046.85 1684.64 1058.11C1685.16 1061.38 1684.82 1062.09 1681.06 1065.57C1677.98 1068.42 1676.47 1070.9 1675.2 1075.19C1673.21 1081.94 1672.05 1082.63 1661.5 1083.3C1654.26 1083.76 1647.51 1086.24 1646.52 1088.8C1645.36 1091.83 1644.01 1114.65 1644.63 1120.73C1645.08 1125.05 1646.13 1128.4 1647.98 1131.3C1655.51 1143.17 1651.07 1147.13 1630.5 1146.9C1625 1146.84 1615.1 1147.04 1608.5 1147.35C1601.9 1147.66 1594.84 1147.55 1592.8 1147.12Z" fill="black"/>
</svg>
