<svg width="2240" height="1344" viewBox="0 0 2240 1344" fill="none" xmlns="http://www.w3.org/2000/svg">
<path fill-rule="evenodd" clip-rule="evenodd" d="M1753.5 1285.82C1736.63 1283.65 1734.8 1282.74 1734.8 1276.6C1734.8 1272.39 1736.93 1268.65 1741.53 1264.77C1745.72 1261.24 1747.41 1256.82 1749.43 1244.16C1751.22 1232.85 1750.65 1228.3 1746.1 1217.73C1744.37 1213.7 1743.3 1212.63 1739.27 1210.9C1736.65 1209.77 1731.35 1208.63 1727.5 1208.36C1716.58 1207.6 1716.27 1207.46 1713.51 1202.02C1711.66 1198.37 1711 1195.49 1711 1191.09C1711 1187.81 1710.51 1184.82 1709.92 1184.45C1708.07 1183.31 1709.88 1179.13 1714.1 1174.77C1716.33 1172.48 1718.86 1169.23 1719.73 1167.56C1722.37 1162.45 1722.47 1152.7 1720.01 1140.55C1717.66 1128.96 1717.78 1122.79 1720.41 1120.16C1721.83 1118.74 1722.33 1118.8 1725.74 1120.86C1733.92 1125.77 1745.93 1130.78 1752.13 1131.86C1769.32 1134.86 1786.21 1132.42 1798.91 1125.11C1807.67 1120.06 1808.53 1119.82 1810.41 1121.9C1812.43 1124.14 1812.47 1130.84 1810.5 1142C1807.3 1160.18 1808.87 1167.7 1817.96 1177.65C1822.47 1182.58 1822.83 1183.32 1821.89 1185.78C1821.33 1187.26 1820.84 1190.26 1820.81 1192.43C1820.78 1194.61 1819.95 1198.75 1818.96 1201.63C1816.11 1209.89 1816.11 1209.89 1835 1227.27C1843.34 1234.95 1855.33 1249.87 1859.1 1257.25C1860.71 1260.41 1862.26 1263 1862.54 1263C1862.81 1263 1864.81 1261.83 1866.98 1260.4C1869.82 1258.51 1871.37 1256.5 1872.56 1253.15C1873.46 1250.59 1874.8 1246.92 1875.53 1245C1876.26 1243.08 1877.14 1240.15 1877.49 1238.5C1879.14 1230.64 1884.35 1219.97 1888.69 1215.58C1895.07 1209.1 1898.76 1208.31 1909.8 1211.06C1919.63 1213.51 1921.68 1214.41 1924.18 1217.4C1928.26 1222.28 1928.52 1228.25 1924.81 1232.09C1919.6 1237.5 1915.68 1243.77 1912.45 1251.84C1907.01 1265.46 1901.1 1272.33 1890.82 1276.99C1887.3 1278.59 1884.25 1278.96 1874.37 1278.98C1862.34 1279 1862.19 1279.03 1856.54 1282.43C1849.13 1286.9 1843.57 1288 1828.7 1287.98C1804.15 1287.94 1799 1285.92 1799 1276.35C1799 1271.46 1798.77 1270.93 1795.97 1269.48C1794.3 1268.62 1792.46 1268.21 1791.88 1268.58C1791.29 1268.94 1789.53 1272.08 1787.97 1275.56C1784.67 1282.92 1780.11 1286.49 1773 1287.26C1770.53 1287.53 1761.75 1286.88 1753.5 1285.82Z" fill="black"/>
</svg>
