<svg width="2240" height="1344" viewBox="0 0 2240 1344" fill="none" xmlns="http://www.w3.org/2000/svg">
<path fill-rule="evenodd" clip-rule="evenodd" d="M1631.1 542.17C1624.44 540.86 1624.1 539.43 1624.05 512.5C1624.03 499.3 1624.05 487.48 1624.11 486.23C1624.16 484.98 1623.7 483.34 1623.07 482.59C1622.14 481.46 1621.42 481.73 1619.04 484.11C1616.05 487.1 1614.5 487.45 1609 486.35C1606.2 485.79 1605.34 484.82 1602.74 479.26C1599.07 471.42 1598.95 467.02 1602.22 460.49C1603.73 457.48 1604.99 452.79 1605.4 448.68C1606.6 436.54 1614.76 428.58 1628.56 426.08C1636.5 424.64 1646.65 421.69 1652.34 419.17C1663.09 414.42 1674.85 412.11 1693 411.18C1703.25 410.65 1711.62 409.75 1713.2 409C1714.68 408.3 1717.5 405.42 1719.45 402.61C1723.46 396.85 1727.36 391.6 1732.52 385C1734.46 382.52 1738.7 376.9 1741.94 372.5C1757.5 351.39 1766.81 340.39 1774.02 334.67C1776.48 332.71 1779.85 330.02 1781.5 328.69C1789.57 322.2 1795.8 321.51 1808.57 325.67C1818.31 328.84 1820.41 331.32 1820.23 339.44C1820.16 342.23 1820.66 345.23 1821.32 346.12C1821.99 347.02 1827.03 350.03 1832.52 352.81C1844.94 359.1 1864.79 372.68 1867.63 376.83C1873.61 385.57 1870.71 400 1860.08 414.4C1854.91 421.39 1850.39 424.82 1844.15 426.46C1838.5 427.95 1835.08 427.47 1824.11 423.62C1817.52 421.3 1803.91 418 1800.98 418C1798.95 418 1788.96 428.3 1785.54 433.93C1782.3 439.27 1778.84 447.64 1777.63 453.06C1777.31 454.47 1776.77 473.58 1776.42 495.53C1776.07 517.48 1775.4 536.45 1774.93 537.69C1774.46 538.93 1772.91 540.23 1771.5 540.59C1767.25 541.66 1757.1 540.52 1755.36 538.79C1753.65 537.08 1749.74 537.69 1744.3 540.53C1741.08 542.21 1730.78 542.49 1727.96 540.98C1724.12 538.93 1722.52 532.77 1720.01 510.47C1718.53 497.39 1716.63 489.77 1714.36 487.88C1713.11 486.84 1708.99 486.5 1697.76 486.5C1677.69 486.5 1679 484.73 1678.99 511.86C1678.99 523.21 1678.53 534.16 1677.96 536.19C1676.85 540.21 1676.24 540.53 1667.91 541.47C1658.48 542.54 1656.55 540.67 1653.48 527.5C1652.78 524.5 1652.78 524.5 1651.54 529C1649.72 535.57 1648.46 538.29 1646.36 540.18C1644.23 542.1 1636.14 543.15 1631.1 542.17Z" fill="black"/>
</svg>
